<svg width="137" height="115" viewBox="0 0 137 115" fill="none" xmlns="http://www.w3.org/2000/svg">
<path d="M32.3689 62.4976C34.1921 62.3658 35.8528 61.3586 37.2781 60.1641C38.7035 58.9696 39.96 57.6181 41.5904 56.6773C42.6774 56.05 44.03 55.5436 44.574 54.3487C45.1482 53.0873 44.5333 51.445 43.3626 50.6716C42.1919 49.8983 40.719 49.7887 39.3546 49.969C37.9902 50.1494 36.6376 50.6557 35.3094 50.9326C34.5003 51.1254 33.5887 51.1912 32.798 50.9916C31.9409 50.7617 31.1987 50.1033 31.1026 49.2581C30.9763 48.4793 31.3751 47.7792 31.9429 47.2362C32.5107 46.6932 33.2172 46.3736 33.8573 46.0239C35.3911 45.1192 36.8224 44.0878 38.1814 42.8631C38.7189 42.3865 39.2203 41.8133 39.4561 41.1192C39.7464 40.1293 39.1069 39.5976 38.9444 38.7222C38.7819 37.8468 38.9151 37.0259 37.9857 36.6028C37.7201 36.4819 37.4244 36.4273 37.1589 36.3065C36.7605 36.1251 36.5192 35.775 36.1209 35.5936C35.4208 35.1948 34.6059 35.2245 33.936 34.7593C33.7671 34.6023 33.5318 34.4149 33.3628 34.2579C32.9283 33.98 32.3368 33.871 31.8116 33.7922C31.3167 33.6471 30.852 33.4355 30.4175 33.1576C30.2485 33.0005 30.0132 32.8133 29.814 32.7226C29.6149 32.6319 29.4157 32.5412 29.1864 32.5169C28.3956 32.3172 27.2973 31.7372 26.4823 31.7669C25.8967 31.8209 25.0029 32.3758 24.5258 32.7196C23.6984 33.3047 22.9795 34.1797 22.8522 35.1636C22.7794 35.8517 23.0023 36.5944 22.8993 37.3489C22.6991 39.021 20.978 40.1609 19.3659 40.7094C17.3975 41.3361 15.8329 43.1886 15.548 45.2228C15.2632 47.2571 16.2218 49.3765 17.9296 50.5547C18.9675 51.2676 20.1868 51.5821 21.0677 52.464C21.7796 53.1888 22.2379 54.1187 22.7264 54.9822C23.3115 55.8096 24.657 56.9031 25.5508 56.3482C26.1909 55.9985 26.9335 55.7756 27.5672 56.1442C28.7017 56.8209 28.1756 58.5049 28.35 59.7063C28.5422 61.3968 30.5457 62.6294 32.3689 62.4976ZM23.4606 48.2638C22.9721 47.4003 23.4254 46.4044 24.0175 45.632C24.6095 44.8596 25.3343 44.1477 25.3651 43.1999C25.3774 42.6445 25.2268 42.0951 25.1728 41.5095C25.1382 38.7688 28.5309 38.7103 30.475 38.313C30.9942 38.2287 31.447 38.1143 31.9722 38.1931C33.4813 38.3992 34.3859 39.9331 32.9546 40.9646C32.1272 41.5497 31.1913 41.845 30.2614 42.3032C29.3315 42.7615 28.4739 43.413 28.2138 44.3365C27.9537 45.26 28.1524 46.232 27.7595 47.095C27.3666 47.958 26.6418 48.67 25.7059 48.9653C24.9633 49.1882 23.9129 49.0307 23.4606 48.2638Z" fill="#9CCB3B"/>
<path d="M55.8904 81.7797C57.4173 82.4748 58.5454 83.87 59.7944 84.9996C62.057 87.0715 65.2739 88.4556 68.2445 87.5639C69.8264 87.0818 71.0947 86.0562 72.5682 85.2844C74.6515 84.2291 76.9879 83.8501 79.2882 83.3745C81.5885 82.8989 83.8828 82.2604 85.755 80.7884C87.5971 79.3829 89.8805 76.6555 88.8253 74.5722C87.4564 71.9455 85.5306 71.9504 85.6892 69.1373C85.7258 68.3526 86.3541 67.6768 86.8857 67.0372C87.8884 65.8907 89.0601 64.9014 90.3344 64.0389C91.1315 63.5201 91.9951 63.0315 92.6897 62.386C93.3843 61.7405 93.9763 60.9682 94.17 60.0145C94.5515 57.9441 92.3305 57.0131 91.0151 55.8533C90.3394 55.225 89.7181 54.3011 89.9782 53.3776C90.2987 52.3213 91.5546 51.8512 92.6654 51.876C93.7762 51.9008 94.9652 52.2817 95.9556 51.6906C97.4895 50.786 98.0275 49.428 98.9579 48.0884C99.4533 47.3522 100.154 46.8696 100.957 46.5138C102.05 46.0496 103.113 45.6519 104.241 46.1657L104.308 46.1959C104.772 46.4075 105.237 46.619 105.418 47.1021C105.562 47.4885 105.544 47.8809 105.429 48.3094C105.012 49.4019 103.991 50.0593 102.965 50.5537C101.938 51.0481 100.809 51.4157 99.9879 52.1638C98.6591 53.3221 98.0483 55.3683 98.5967 56.9804C98.8558 57.8197 99.278 58.6529 99.5371 59.4922C99.9166 60.9473 99.7768 62.4866 100.543 63.797C101.273 65.0109 102.697 65.5792 104.14 65.7551C106.862 66.1128 109.724 64.9312 111.476 62.8434C111.881 62.3064 112.316 61.703 112.889 61.323C113.687 60.8043 114.767 60.8954 115.751 61.0227C116.21 61.0713 116.735 61.15 117.103 61.3978C117.875 61.9898 117.627 63.2393 117.367 64.1628C116.968 65.7442 116.701 67.386 117.473 68.8594C118.034 69.9161 119.102 70.5628 120.267 70.2918C122.278 69.9247 121.561 67.2741 121.81 65.1432C122.089 62.946 123.074 60.4292 122.604 58.2919C122.333 57.1266 122.093 55.8949 121.375 55.0071C120.452 53.8656 119.027 53.2974 117.56 53.3509C116.093 53.4044 114.988 54.4239 113.774 55.1537C113.007 55.606 112.246 56.2215 111.437 56.4142C110.532 56.6431 109.234 55.9722 108.812 55.1389C108.426 54.4022 108.783 53.4425 109.411 52.7667C110.009 52.1573 110.812 51.8016 111.579 51.3493C114.103 49.8536 115.801 47.1804 116.123 44.3613L112.763 39.065L107.108 37.0517C103.963 36.7421 100.685 36.3719 97.6421 37.0705C94.5689 37.8354 91.5735 39.8379 90.5395 42.8135C89.9529 44.6302 89.7825 47.1173 87.9469 47.8044C86.691 48.2746 85.3935 47.6038 84.0172 47.4581C82.1157 47.2337 80.2861 48.0839 78.8969 49.375C77.5077 50.6661 76.4866 52.2049 75.4353 53.8101C74.3235 55.5481 73.2598 57.7086 74.3032 59.4659C74.9304 60.5529 76.2883 61.091 76.9156 62.178C77.7177 63.585 77.1975 65.432 76.0317 66.5844C74.8659 67.7368 72.0346 67.9705 70.4888 68.5492C66.238 70.1405 64.1602 72.2402 60.4702 74.8883C57.0036 77.3976 55.6293 73.7265 52.9371 73.3024C51.591 73.0904 48.8206 72.31 48.5437 70.9817C48.2667 69.6534 49.2333 68.4104 50.3867 67.8134C51.54 67.2164 52.9292 65.9254 57.0938 67.3404C58.9769 67.9572 60.486 68.1632 61.7058 67.5965C64.6284 66.2821 65.4696 62.4974 67.7709 60.2591C69.0333 59.0705 70.7302 58.1599 70.9967 56.5181C71.3237 54.7434 68.3858 51.162 69.2741 49.5627C70.2228 47.8307 72.8912 47.6028 74.4132 46.3722C76.9196 44.3875 75.9842 43.8014 78.8765 42.5534C79.9695 42.0892 84.7321 42.8947 87.6675 40.1436C88.9299 38.9551 89.2688 37.5064 89.2212 36.2024C87.1325 36.2133 85.1765 36.2846 83.1056 36.7845C82.2 37.0134 81.3245 37.1759 80.4189 37.4048C80.624 37.6585 80.2132 38.0326 79.8872 38.0445C79.5915 37.99 79.2897 37.7725 78.9578 37.6214C78.4931 37.4098 77.8773 37.5302 77.3278 37.6808C76.712 37.8012 76.066 37.988 75.4863 38.205C74.7134 38.4943 74.0129 38.9769 73.1736 39.236C72.1109 39.6339 70.8614 39.3856 69.7809 39.2945C68.8633 39.1974 67.8611 39.4623 67.0219 39.7214C66.3758 39.9082 66.9728 41.0615 66.9728 41.0615C67.4737 41.3697 67.5034 42.1848 67.1952 42.6857C66.8207 43.1563 66.241 43.3734 65.589 43.3971C65.0034 43.4511 64.3758 43.2454 63.8204 43.233C61.098 42.8753 58.224 43.7309 56.104 45.571C55.0289 46.5242 54.1346 47.9605 54.478 49.319C54.7068 50.2246 55.3524 50.9192 55.6779 51.7887C56.0876 53.1774 55.4228 54.6379 54.2813 55.5609C53.2062 56.5141 51.7511 56.8936 50.3926 57.237C49.0341 57.5803 47.5429 57.8632 46.3291 58.5929C39.7829 62.5856 41.507 66.8969 42.1644 67.9175C43.1657 69.4152 44.2701 70.1583 44.873 71.4746C45.8559 73.3647 43.5001 75.8989 45.7682 79.0152C46.7997 80.4465 48.8038 80.7977 50.6027 80.8953C52.4378 81.0895 54.2971 81.0544 55.8904 81.7797ZM66.4138 79.4374C65.7381 78.8092 65.5999 77.7044 65.9263 76.8111C66.2528 75.9178 67.0138 75.3025 67.8471 74.8804C68.6805 74.4583 69.6525 74.2596 70.5279 74.0971C71.2101 74.007 71.9226 73.8503 72.5687 73.6635C73.0215 73.549 73.3356 73.2112 73.6859 72.9699C74.8333 72.2099 75.9445 71.3534 77.0919 70.5934C78.0461 69.9057 79.9605 68.6934 81.1976 69.497C82.5313 70.2644 81.5221 72.1292 81.1352 73.1552C80.8994 73.8493 80.5669 74.5797 79.9268 74.9294C79.1296 75.4481 78.0432 75.194 77.1375 75.4228C75.7126 75.736 74.8486 77.1058 73.6348 77.8356C72.1975 78.7041 71.0199 79.5305 69.4018 79.9159C68.3996 80.181 67.1922 80.1924 66.4138 79.4374Z" fill="#9CCB3B"/>
<path d="M93.3915 79.8572C92.5042 79.6937 91.6709 80.1159 90.9703 80.5984C90.2396 81.1474 89.708 81.7868 88.9772 82.3358C88.4035 82.7158 87.7634 83.0655 87.1595 83.5119C86.622 83.9885 86.1567 84.6584 86.2469 85.3406C86.343 86.1858 87.049 86.7476 87.8699 86.8809C88.6909 87.0142 89.4999 86.8214 90.2728 86.5321C91.3355 86.1342 92.362 85.6399 93.1472 84.7952C94.2223 83.842 95.7275 80.3596 93.3915 79.8572Z" fill="#9CCB3B"/>
<path d="M15.4336 34.0304C15.228 34.6581 15.0888 35.3161 15.4024 35.8596C15.7824 36.4333 16.4765 36.6692 17.0982 36.7118C17.72 36.7544 18.4988 36.6281 18.8734 36.1574C19.2479 35.6868 19.2603 35.1313 19.5021 34.6002C19.7741 34.0027 20.3537 33.7857 20.7283 33.3151C21.2599 32.6755 21.0731 32.0294 20.4637 31.4315C18.6415 29.8005 16.0866 32.2439 15.4336 34.0304Z" fill="#9CCB3B"/>
<path d="M58.1951 84.1121C58.5027 84.4926 58.8104 84.8731 59.2449 85.151C59.613 85.3987 60.1803 85.7372 60.5484 85.9849C62.3587 87.2898 64.3503 88.1965 66.6927 87.9805C66.8557 87.9745 66.9524 87.9383 67.0549 88.0651C67.3868 88.2163 67.6767 88.1077 67.9363 88.0656C68.9083 87.867 69.808 87.4751 70.6354 86.89C72.0365 85.9249 73.6486 85.3764 75.2246 84.7314C76.6738 84.1889 78.2675 84.0329 79.7226 83.6534C80.3023 83.4364 80.9181 83.3159 81.5339 83.1955C83.7679 82.6897 85.8209 81.7008 87.4578 80.0416C88.1524 79.396 88.6419 78.497 89.4029 77.8816C89.3305 77.6884 89.4212 77.4892 89.6446 77.3505C89.7051 77.2177 89.6689 77.1211 89.7294 76.9883C90.5454 75.1959 90.0995 73.7105 88.8748 72.3516C88.3982 71.814 87.6679 71.4816 87.2517 70.8112C86.9381 70.2678 86.5943 69.7907 86.7637 69.0664C87.0481 67.9135 87.5317 66.8513 88.4859 66.1636C88.963 65.8198 89.5064 65.5062 89.881 65.0355C90.2253 64.6313 90.7386 64.3839 91.1191 64.0763C92.2304 63.2197 93.6492 62.7437 94.3805 61.3134C94.5921 60.8487 94.6407 60.3898 94.822 59.9915C95.4324 58.8267 94.9741 57.8968 94.2864 56.9426C93.9426 56.4655 93.4779 56.254 93.1038 55.8433C92.971 55.7828 92.9349 55.6862 92.8626 55.4929C92.2953 55.1546 91.728 54.8163 91.2514 54.2787C90.7386 53.6446 90.8055 52.7934 91.4154 52.51C91.9286 52.2628 92.4419 52.0155 93.0033 52.1909C93.631 52.3965 94.2468 52.2761 94.8383 52.3851C95.5929 52.4882 96.1364 52.1745 96.7101 51.7945C97.7609 51.0707 98.341 49.9725 99.0901 49.0311C99.6519 48.3251 99.9423 47.3352 100.975 47.0038C101.102 46.9012 101.259 46.7322 101.488 46.7565C102.418 46.2982 103.263 46.2022 104.229 46.7219C104.796 47.0603 104.82 47.7123 104.216 48.1587C104.155 48.2915 104.059 48.3276 103.866 48.4C103.618 48.7681 103.268 49.0093 102.881 49.154C102.042 49.4131 101.372 49.8292 100.605 50.2816C99.4211 50.945 98.2737 51.7048 97.9348 53.1535C97.9046 53.2199 97.8441 53.3528 97.8139 53.4191C97.4032 53.7932 97.421 54.2821 97.5053 54.8013C97.5171 55.1273 97.692 55.4474 97.5711 55.713C97.2689 56.3769 97.5162 56.8901 97.86 57.3672C98.3787 58.1643 98.5412 59.0398 98.8003 59.8791C98.9028 60.0059 98.8424 60.1386 98.6794 60.1446C98.6551 60.374 98.6972 60.6337 98.6729 60.863C98.8721 60.9537 98.9445 61.1469 99.0168 61.3401C99.2521 61.5274 98.9683 61.7988 99.0104 62.0584C99.1432 62.1188 99.1793 62.2155 99.1853 62.3785C99.3235 63.4833 99.812 64.3469 100.747 64.933C100.983 65.1202 101.152 65.2773 101.387 65.4646C102.461 66.2741 103.801 66.3232 105.081 66.505C105.214 66.5654 105.34 66.4628 105.437 66.4267C105.727 66.3182 105.987 66.2761 106.246 66.234C108.649 65.8852 110.6 64.7695 112.098 62.8869C112.66 62.1809 113.221 61.4749 114.235 61.5359C114.398 61.5299 114.495 61.4937 114.592 61.4576C115.105 61.2103 115.6 61.3554 116.101 61.6636C116.433 61.8147 116.475 62.0743 116.487 62.4003C116.456 63.348 116.196 64.2716 115.936 65.195C115.797 65.853 115.887 66.5353 115.941 67.1209C116.085 68.3887 116.646 69.4455 117.623 70.2912C118.13 70.7623 118.728 71.0342 119.41 70.944C120.092 70.8539 120.78 70.9268 121.287 70.5166C122.048 69.9012 122.472 68.9717 122.442 68.1568C122.352 66.5932 122.854 65.1385 122.668 63.6111C122.632 63.5145 122.662 63.4483 122.692 63.3819C123.115 62.4524 123.14 61.3416 123.334 60.3879C123.721 58.4805 123.04 56.8079 122.359 55.1353C121.647 53.5291 120.241 52.5685 118.503 52.3381C117.452 52.1805 116.342 52.1558 115.418 52.7771C114.463 53.4647 113.37 53.929 112.452 54.7133C112.199 54.9184 111.909 55.0268 111.655 55.2319C111.208 55.5093 110.75 55.4608 110.285 55.2493C109.82 55.0377 109.446 54.627 109.332 54.1741C109.217 53.7213 109.694 53.3775 110.045 53.1362C110.552 52.726 111.089 52.2495 111.699 51.9661C112.599 51.5742 113.258 50.832 113.922 50.2528C114.459 49.7762 114.961 49.203 115.197 48.5089C115.318 48.2434 115.783 47.5735 116.176 46.7105C116.236 46.5777 116.297 46.445 116.387 46.2458C116.593 45.6181 116.732 44.9601 116.708 44.3081C116.565 42.1589 115.256 40.2807 113.639 38.9034C112.196 37.8462 110.506 37.1571 108.955 36.6914C108.068 36.5279 107.181 36.3644 106.227 36.1706C106.16 36.1404 106.094 36.1101 106.058 36.0135C105.171 35.85 104.645 35.7713 104.579 35.741C104.579 35.741 104.513 35.7109 104.416 35.747C103.305 35.7223 102.225 35.6311 101.15 35.703C100.891 35.7451 100.655 35.5578 100.329 35.5697C98.7716 35.8224 97.1778 35.9784 95.6261 36.3941C95.5657 36.5269 95.4027 36.5327 95.3061 36.5689C95.0222 36.8404 94.7324 36.9489 94.4123 37.1238C93.2228 37.6242 92.1779 38.511 91.296 39.3919C90.9517 39.7962 90.8065 40.2911 90.426 40.5988C89.6348 41.2805 89.3386 42.1073 89.2415 43.0249C89.1503 44.1054 88.6969 45.1013 88.2436 46.0972C88.0321 46.5619 87.6516 46.8694 87.0299 46.8268C86.3115 46.8204 85.4965 46.8501 84.9292 46.5118C83.8308 45.9316 82.7379 46.3958 81.6995 46.5642C80.6611 46.7327 79.6707 47.3237 78.7769 47.8786C78.7165 48.0114 78.5896 48.114 78.4568 48.0536C78.2696 48.2889 78.01 48.3309 77.8589 48.6629C77.3332 49.4655 76.705 50.1413 76.0406 50.7205C75.9138 50.823 75.787 50.9256 75.6963 51.1247C74.7357 52.5308 73.7087 53.9065 73.2127 55.5241C72.8015 56.7795 72.3239 58.0047 73.0898 59.3152C73.4758 60.0519 74.4408 61.4531 75.1047 61.7553C75.835 62.0877 76.0822 62.6009 76.0758 63.3193C76.1115 64.2973 75.616 65.0336 75.187 65.8C74.909 66.2345 74.42 66.2522 74.0336 66.3969C72.9045 66.7645 71.8478 67.3253 70.6345 67.1737C70.5681 67.1435 70.411 67.3125 70.3144 67.3487C69.0946 67.9154 67.8025 68.289 66.7879 69.1094C65.9001 69.8273 64.771 70.1948 63.9496 70.9429C63.8589 71.1421 63.6657 71.2146 63.4724 71.2869C62.6812 71.9686 61.685 72.3965 60.8635 73.1446C60.4528 73.5187 60.0059 73.7962 59.559 74.0736C58.5384 74.7311 57.1983 74.682 56.257 73.9329C55.2493 73.1536 54.2416 72.3742 52.8351 72.2949C52.1167 72.2885 51.4225 72.0528 50.7889 71.6842C50.2578 71.4424 49.4007 71.2125 49.371 70.3975C49.311 69.6489 49.7158 69.1119 50.3861 68.6957C50.4827 68.6595 50.6096 68.5569 50.7062 68.5207C50.8994 68.4484 51.1228 68.3098 51.2798 68.1409C52.4515 67.1515 53.8219 67.134 55.1438 67.5755C55.9706 67.8717 56.7614 68.0714 57.5521 68.2711C58.4394 68.4346 59.3688 68.8577 60.3711 68.5926C61.1801 68.3999 61.953 68.1106 62.762 67.9179C63.2812 67.8337 63.5953 67.4958 63.8732 67.0613C64.7432 65.8545 65.6435 64.5811 66.4471 63.344C67.4018 61.775 68.459 60.3328 69.9567 59.3315C71.0739 58.6379 71.4549 57.4489 71.8057 56.3262C71.8963 56.1271 71.9206 55.8976 71.8483 55.7044C71.6254 54.9618 71.5595 54.0502 71.1433 53.3799C70.7271 52.7095 70.4739 52.0334 70.3174 51.3209C70.1787 51.0975 70.0399 50.8741 70.1306 50.6749C69.7565 50.2642 69.8715 49.8357 70.252 49.528C70.7291 49.1842 71.17 48.7437 71.7497 48.5267C72.5226 48.2373 73.2593 47.8514 73.9658 47.5318C74.479 47.2846 74.9561 46.9408 75.3669 46.5667C75.9346 46.0237 76.2309 45.1969 76.9978 44.7446C77.0583 44.6118 77.1549 44.5756 77.3481 44.5033C77.7167 43.8696 78.1938 43.5258 78.9062 43.3692C80.0051 43.068 81.2125 43.0566 82.3173 42.9184C83.2289 42.8525 84.1405 42.7865 85.01 42.461C86.8817 41.8705 88.4819 40.9962 89.3281 39.1373C89.5699 38.6062 89.7151 38.1112 89.8905 37.5499C89.9693 37.0247 89.6254 36.5476 89.0701 36.5352C88.6777 36.5169 88.2971 36.8246 88.2486 37.2834C88.1758 37.9716 87.9702 38.5992 87.4629 39.0094C86.3576 40.029 85.222 41.115 83.4835 40.8847C83.4171 40.8544 83.3206 40.8905 83.3206 40.8905C82.62 41.3731 81.8595 41.1071 81.1109 41.167C80.0665 41.1725 78.986 41.0812 78.062 41.7025C76.7214 42.5348 75.5135 43.4277 74.6192 44.864C74.2506 45.4976 73.6467 45.9439 72.7654 45.9434C72.7049 46.0762 72.6747 46.1426 72.4755 46.052C72.4453 46.1184 72.4814 46.215 72.3848 46.2512C71.5817 46.6069 70.7122 46.9324 69.8789 47.3545C69.0154 47.843 68.2545 48.4582 68.0003 49.5447C67.8309 50.269 68.084 50.9454 68.3371 51.6217C68.8435 52.9742 69.38 54.2603 69.983 55.5767C70.0855 55.7035 70.1217 55.8001 70.0974 56.0295C69.8071 57.0194 69.2512 57.8884 68.4238 58.4735C67.4998 59.0948 66.5397 59.6193 66.189 60.742C66.1285 60.8747 66.0319 60.9109 65.9051 61.0135C65.3373 61.5565 65.0351 62.2204 64.5699 62.8902C64.0442 63.6928 63.585 64.5256 62.9929 65.298C62.7754 65.5997 62.6907 65.9619 62.3102 66.2696C61.2594 66.9934 60.1848 67.0652 58.9655 66.7506C57.5833 66.442 56.2555 65.8375 54.8128 65.6617C54.2876 65.5829 53.7021 65.6368 53.1467 65.6244C52.0057 65.6661 50.9732 65.9975 50.0914 66.8784C49.9645 66.981 49.8377 67.0835 49.6747 67.0895C48.8959 67.2158 48.5574 67.7832 48.0863 68.29C47.5849 68.8632 47.5121 69.5512 47.3729 70.2092C47.2397 71.0301 47.734 72.0567 48.44 72.6185C49.2426 73.1442 50.2023 73.5009 51.1862 73.6282C52.6651 73.9007 53.9567 74.4086 55.0972 75.2483C55.8334 75.7437 56.4849 76.6013 57.5838 76.3001L57.6501 76.3303C58.477 76.6265 59.2137 76.2406 59.9202 75.921C61.3332 75.2819 62.5653 74.1599 63.8034 73.2007C65.4522 71.8675 67.3784 70.9812 69.0996 69.8412C69.9631 69.3527 70.8628 68.9607 71.9013 68.7923C73.1329 68.5515 74.3888 68.0814 75.5482 67.6474C76.001 67.5329 76.4176 67.3219 76.6594 66.7908C76.9373 66.3563 77.0825 65.8614 77.3302 65.4933C78.1095 64.4855 77.8083 63.3866 77.8995 62.3061C77.9238 62.0767 77.785 61.8533 77.5799 61.5996C76.699 60.7178 75.945 59.7334 74.9071 59.0205C74.7079 58.9298 74.5994 58.6399 74.5573 58.3803C74.2199 57.1848 74.8362 56.1831 75.2895 55.1873C75.6824 54.3243 76.2442 53.6183 76.6733 52.8519C77.2594 51.9165 78.0808 51.1684 78.6307 50.1364C78.7516 49.8708 79.0053 49.6656 79.3254 49.4907C79.9957 49.0746 80.7324 48.6887 81.4389 48.3692C82.0185 48.1522 82.6705 48.1284 83.214 47.8148C83.3106 47.7786 83.4737 47.7726 83.6064 47.833C84.3426 48.3284 85.1878 48.2324 86.0449 48.4623C87.1314 48.7165 88.206 48.6446 89.0215 47.7335C89.4926 47.2266 89.7646 46.6292 90.0366 46.0317C90.4354 45.3317 90.7981 44.535 90.9012 43.7804C91.1192 42.5973 91.5363 41.5049 92.4182 40.624C92.4727 40.3282 92.6961 40.1896 92.9557 40.1475C93.6444 39.3389 94.5381 38.7841 95.5344 38.356C97.1406 37.6446 98.8856 37.1565 100.684 37.2541C101.994 37.3696 103.292 37.159 104.572 37.3408C105.164 37.4498 105.755 37.5589 106.407 37.5351C106.474 37.5653 106.474 37.5654 106.474 37.5654C107.095 37.608 107.626 37.8497 108.218 37.9587C108.846 38.1643 109.504 38.3035 110.101 38.5755C110.898 38.9382 111.7 39.4638 112.34 39.9954C112.98 40.527 113.655 41.1553 114.138 41.8558C114.62 42.5564 114.747 43.3352 114.777 44.1502C114.812 45.1281 114.787 46.2388 114.129 46.981C114.129 46.981 114.099 47.0474 114.032 47.0172C113.851 47.4156 113.634 47.7172 113.416 48.0189C112.57 48.9964 111.453 49.69 110.505 50.5407C109.967 51.0173 109.321 51.2041 108.609 51.3607C108.512 51.3968 108.512 51.3968 108.416 51.433C108.168 51.8011 107.89 52.2355 107.841 52.6943C107.817 52.9237 107.726 53.1229 107.636 53.3221C107.231 53.8591 107.382 54.4085 107.726 54.8856C107.864 55.109 108.1 55.2963 108.305 55.55C108.812 56.0211 109.318 56.4923 109.946 56.6979C110.87 56.958 111.751 56.9585 112.609 56.307C113.847 55.3479 115.187 54.5155 116.534 53.8462C116.854 53.6713 117.21 53.593 117.572 53.6777C118.46 53.8412 119.317 54.0712 120.119 54.5969C120.318 54.6875 120.554 54.8747 120.693 55.0981C121.434 56.6379 121.82 58.256 121.686 59.9583C121.546 61.4976 121.111 62.9825 120.838 64.4614C120.784 64.7571 120.771 65.3125 120.783 65.6385C120.831 66.0611 120.716 66.4896 120.668 66.9484C120.553 67.3769 120.534 67.7694 120.582 68.192C120.673 68.8742 120.135 69.3507 119.544 69.2417C118.886 69.1025 118.355 68.8608 118.101 68.1845C117.492 66.7051 117.439 65.2382 118.037 63.7474C118.551 62.6188 118.19 60.7713 116.989 60.0643C116.223 59.6353 115.408 59.6651 114.623 59.6284C114.134 59.6462 113.675 59.5977 113.126 59.7483C112.256 60.0738 111.688 60.6168 111.157 61.2564C109.719 63.0062 107.938 64.2791 105.692 64.4589C103.838 64.6571 101.738 64.3419 100.942 62.2165C100.797 61.8301 100.78 61.3411 100.635 60.9547C100.472 60.0793 100.503 59.1314 100.117 58.3947C99.5623 57.5009 99.6535 56.4204 99.0986 55.5266C99.0624 55.43 99.0263 55.3334 99.0565 55.267C99.2566 53.5949 100.368 51.8571 101.823 51.4776C102.276 51.3631 102.699 51.315 103.079 51.0074C103.81 50.4584 104.74 50.0001 105.368 49.3243C105.429 49.1915 105.525 49.1554 105.652 49.0528C106.117 48.383 106.057 47.6345 106.323 46.874C106.438 46.4454 106.33 46.1556 106.095 45.9683C104.918 45.032 103.741 44.0956 102.165 44.7406C101.875 44.8491 101.707 44.6921 101.417 44.8006C101.29 44.9031 101.091 44.8124 100.898 44.8847C98.947 46.0004 97.4007 47.4605 96.4639 49.5185C96.2221 50.0496 95.8114 50.4237 95.256 50.4113C94.278 50.447 93.2698 50.5491 92.3463 50.289C91.785 50.1136 91.3985 50.2583 90.9516 50.5357C90.7282 50.6745 90.5048 50.8131 90.2813 50.9518C89.7379 51.2654 89.2607 51.6093 89.1215 52.2672C88.9823 52.9252 88.6499 53.6554 89.2593 54.2534C89.4282 54.4104 89.4039 54.6399 89.5426 54.8633C89.8201 55.3102 90.0975 55.7571 90.5622 55.9687C91.5942 56.5186 92.3121 57.4064 93.1206 58.095C93.2896 58.2521 93.4283 58.4755 93.3738 58.7713C93.0231 59.8939 92.5698 60.8897 91.4466 61.4203C90.5831 61.9088 89.7195 62.3974 89.0249 63.0429C87.7928 64.1651 86.3917 65.1301 85.3647 66.5059C85.1472 66.8076 84.9297 67.1093 84.9113 67.5017C84.8568 67.7975 84.8989 68.0572 84.8444 68.3529C84.4332 69.6084 84.9881 70.5022 85.7723 71.4202C86.4179 72.1148 87.0273 72.7128 87.6426 73.4738C88.0167 73.8845 88.2941 74.3314 88.2515 74.9531C88.0756 76.3958 87.1695 77.506 86.2272 78.5196C85.6292 79.129 84.8261 79.4848 84.1617 80.064C83.751 80.438 83.1109 80.7877 82.5917 80.872C81.7465 80.9681 80.9736 81.2575 80.1645 81.4502C80.0377 81.5527 80.0075 81.6191 79.7781 81.5948C79.5304 81.9629 79.1925 81.6488 78.9027 81.7573C77.7736 82.1249 76.5662 82.1363 75.5095 82.6971C75.286 82.8359 74.8996 82.9806 74.6038 82.9261C74.0123 82.8171 73.5352 83.1608 72.9858 83.3114C72.1465 83.5706 71.5906 84.4395 70.5765 84.3786L70.516 84.5115C69.7064 85.5856 68.4387 85.7296 67.3096 86.0972C66.6635 86.284 65.9273 85.7886 65.1847 86.0116C65.088 86.0477 64.9552 85.9874 64.8225 85.9269C64.6535 85.7699 64.4242 85.7455 64.1948 85.7212C63.3739 85.5879 62.5832 85.3882 62.0099 84.8869C61.5393 84.5123 60.972 84.174 60.5315 83.7331C60.3626 83.576 60.1273 83.3887 59.9583 83.2317C59.18 82.4766 58.4983 81.6855 57.6595 81.0632C56.7846 80.3444 55.7586 79.9574 54.7687 79.667C53.4831 79.3222 52.1127 79.3396 50.7785 79.4535C49.3115 79.507 48.1106 78.8001 46.819 78.2922C46.6862 78.2318 46.5836 78.1049 46.5113 77.9117C45.8782 76.6617 45.3114 75.442 45.8133 73.9874C45.9039 73.7882 45.9282 73.5588 45.9223 73.3958C45.9649 72.774 46.1705 72.1464 46.0501 71.5306C45.9961 70.945 45.5254 70.5704 45.4412 70.0512L45.1697 69.7674C44.5905 69.103 44.108 68.4023 43.4684 67.8707C42.5573 67.0553 42.1595 65.9926 42.1179 64.8516C42.0099 63.6804 42.7228 62.6425 43.2425 61.6769L43.3391 61.6407L43.623 61.3692C44.5593 60.1926 45.7672 59.2999 47.0474 58.6003C48.2612 57.8705 49.6618 57.7867 51.0203 57.4433C52.6384 57.0579 54.0152 56.3222 55.1809 55.1698C56.0024 54.4217 56.1237 53.2749 56.5107 52.2488C56.2516 51.4096 56.2159 50.4316 55.6669 49.7009C54.8767 48.6198 54.8773 47.7383 55.6566 46.7306C56.5568 45.4574 57.8613 44.5284 59.3104 43.9859C61.0494 43.3349 62.818 43.4991 64.6229 43.7597C65.7396 43.9474 67.1585 43.4712 67.7749 42.4695C68.3005 41.6669 68.1925 40.4958 67.5167 39.8675C67.1788 39.5534 66.6537 39.4746 66.406 39.8427C66.1281 40.2772 65.7233 40.8143 66.1697 41.4182C66.3688 41.5089 66.3084 41.6416 66.1816 41.7441C65.8372 42.1484 65.4146 42.1965 64.9861 42.0816C64.1592 41.7853 63.2778 41.7848 62.3603 41.6877C61.3763 41.5604 60.3137 41.9581 59.3837 42.4164C58.7739 42.6998 58.1942 42.9169 57.6145 43.1339C56.745 43.4594 56.0445 43.9419 55.3137 44.4909C55.0298 44.7624 55.1141 45.2815 54.6251 45.2993C54.4983 45.4019 54.4378 45.5347 54.3412 45.5708C53.121 47.019 53.0778 48.5222 54.0489 50.0862C54.2238 50.4063 54.3987 50.7264 54.5433 51.1128C54.6157 51.306 54.5914 51.5354 54.6637 51.7286C54.9228 52.5678 54.524 53.268 54.1192 53.805C53.6238 54.5412 53.0015 55.38 51.8184 55.162C51.589 55.1377 51.4622 55.2402 51.3052 55.4091C50.8583 55.6866 50.4778 55.9943 49.9165 55.8189C49.6207 55.7644 49.3973 55.9031 49.1075 56.0116C47.5617 56.5902 45.8772 56.9454 44.5485 58.1038C44.488 58.2365 44.3612 58.3391 44.2646 58.3752C43.6364 59.051 42.9056 59.6 42.1748 60.149C41.1904 60.903 40.9724 62.0861 40.4225 63.1181C40.8084 63.8548 40.2828 64.6573 40.3427 65.4059C40.3844 66.5469 40.8124 67.5433 41.3975 68.3707C41.9464 69.1014 42.6583 69.8263 43.3039 70.5209C44.1848 71.4028 44.2507 72.3143 43.9301 73.3706C43.7547 73.9319 43.5189 74.626 43.6695 75.1754C43.9286 76.0147 43.8315 76.9322 44.157 77.8017C44.8021 79.3777 45.8157 80.3201 47.3005 80.7556C48.7853 81.191 50.3608 81.4274 51.9546 81.2713C53.0292 81.1995 54.2064 81.2544 55.2022 81.7078C56.5963 82.3424 57.4772 83.2243 58.1951 84.1121Z" fill="black"/>
<path d="M27.3672 56.9342C27.4094 57.1938 27.4212 57.5199 27.3003 57.7854C27.0947 58.4131 27.6075 59.0473 27.3355 59.6448C28.1738 61.1485 29.1691 62.4831 31.0706 62.7076C32.0545 62.8349 33.0082 63.0286 33.9381 62.5703C34.3246 62.4256 34.6749 62.1843 35.0613 62.0397C35.9308 61.7142 36.6615 61.1653 37.3259 60.5862C38.2137 59.8683 38.9326 58.9932 39.923 58.4022C39.9834 58.2694 40.1103 58.1668 40.2733 58.1609C40.678 57.6238 41.1853 57.2137 41.7952 56.9303C42.6285 56.5082 43.4618 56.0861 44.2288 55.6338C44.9293 55.1512 45.3341 54.6142 45.5035 53.8899C45.7577 52.8034 45.722 51.8254 45.131 50.835C44.6786 50.0681 44.0391 49.5364 43.2726 49.1074C42.1381 48.4306 40.961 48.3756 39.7838 48.3206C38.0513 48.2532 36.4872 49.2243 34.8329 49.5131C33.9575 49.6756 33.2753 49.7659 32.5029 49.1739C31.7969 48.612 31.7126 48.0928 32.2442 47.4532C32.5886 47.0489 33.1683 46.8319 33.6152 46.5544C34.6358 45.897 35.6563 45.2396 36.6105 44.5519C36.6348 44.3225 36.7978 44.3166 36.9306 44.3771C37.7882 43.7256 38.6096 42.9774 39.3949 42.1327C39.9627 41.5897 40.2951 40.8595 40.2653 40.0445C40.2837 39.6521 40.0424 39.3019 39.9641 38.9457C39.9161 38.5231 40.1638 38.1548 40.2124 37.6961C40.2426 37.6297 40.2366 37.4667 40.2005 37.3701C40.1643 37.2735 40.0013 37.2795 39.9349 37.2492C39.3736 37.0739 38.8484 36.995 38.2871 36.8196C37.8883 37.5197 37.6341 38.6063 38.183 39.3371C38.5269 39.8142 38.4783 40.2728 38.2306 40.6409C37.7956 41.2444 37.427 41.8781 36.7567 42.2943C36.34 42.5053 35.9294 42.8793 35.5489 43.1869C34.5644 43.941 33.5438 44.5984 32.4568 45.2257C31.6899 45.678 30.7843 45.9068 30.5603 46.9269C29.5819 47.844 29.9797 48.9068 30.5345 49.8005C31.3728 51.3042 32.9785 51.4741 34.4757 51.3542C35.6469 51.2462 36.9449 51.0357 38.1344 50.5353C38.7141 50.3183 39.4265 50.1618 40.0483 50.2044C41.1591 50.2291 42.3001 50.1874 43.2474 51.0995C44.3997 52.2653 43.9944 53.6838 42.9074 54.311C41.9171 54.9021 41.0233 55.4569 40.0691 56.1445C39.0847 56.8986 38.1726 57.8458 37.1882 58.5999C36.6809 59.0101 36.2156 59.6799 35.63 59.7339C34.8512 59.8603 34.549 60.5241 33.9694 60.7411C33.8728 60.7773 33.7761 60.8135 33.6795 60.8497C32.6713 60.9517 31.6691 61.2168 30.6371 60.6668C29.8042 60.2076 29.3276 59.67 29.0988 58.7644C28.906 57.9553 29.0696 57.0679 28.9735 56.2227C28.8293 54.9549 28.0569 54.363 26.7831 54.3441C26.2941 54.362 25.9379 54.4402 25.5213 54.6512C25.0744 54.9287 24.682 54.9104 24.2113 54.5358C23.4692 53.8774 22.9202 53.1466 22.4981 52.3133C21.7322 51.0029 20.6219 50.0967 19.2337 49.6251C17.743 49.0266 16.8864 47.9154 16.4464 46.5931C15.9703 45.1741 16.1462 43.7314 17.1792 42.5186C17.8376 41.7765 18.5322 41.131 19.4681 40.8357C20.3073 40.5766 21.2071 40.1846 21.9378 39.6357C23.1759 38.6765 23.9071 37.2463 23.5881 35.6584C23.3894 34.6864 23.7883 33.9863 24.1871 33.2863C24.7068 32.3207 26.1134 32.3999 26.9348 31.6518C26.0901 30.8665 24.3818 30.5698 23.6025 31.5775C23.2582 31.9817 22.8113 32.2593 22.4972 32.5972C22.346 32.9291 22.1949 33.261 21.9774 33.5628C21.5543 34.4922 21.7228 35.5305 21.7585 36.5085C21.7461 37.0638 21.5345 37.5286 21.1902 37.9329C20.7191 38.4397 20.1152 38.886 19.4691 39.0728C18.2796 39.5732 17.1564 40.1039 16.2081 40.9546C15.5437 41.5338 15.0786 42.2035 14.8487 43.0606C14.649 43.8513 14.7753 44.6302 14.5093 45.3907C14.3037 46.0184 14.4603 46.7307 14.8705 47.2381C14.973 47.3649 15.0092 47.4615 15.0453 47.5582C15.4189 48.8502 16.3662 49.7623 17.3075 50.5114C18.0135 51.0732 18.9067 51.3998 19.7093 51.9254C20.2102 52.2336 20.6447 52.5115 20.8919 53.0248C21.1694 53.4716 21.314 53.8581 21.5251 54.2747C21.7907 54.3956 21.8328 54.6552 21.9715 54.8787C22.0741 55.0055 22.243 55.1625 22.3758 55.2229C23.492 56.2921 24.6567 56.9026 26.1603 56.0643C26.8123 56.0405 27.2469 56.3184 27.3672 56.9342Z" fill="black"/>
<path d="M76.611 76.2254C75.53 77.0157 74.4188 77.8722 73.4041 78.6926C72.927 79.0365 72.4801 79.3139 71.9971 79.4948C70.7714 79.8985 69.5818 80.399 68.3442 80.4767C67.7586 80.5307 67.2335 80.452 66.7326 80.1438C65.7972 79.5577 65.1215 78.9295 65.0135 77.7583C65.0075 77.5953 64.9352 77.402 64.9957 77.2692C65.2736 76.8347 65.2558 76.3458 65.4009 75.8508C65.8785 74.6256 66.8629 73.8717 68.0524 73.3713C68.2456 73.2989 68.5171 73.5828 68.7346 73.2811C68.8976 73.2752 68.9943 73.2389 69.0547 73.1061C70.1838 72.7385 71.3491 72.4675 72.5505 72.2931C72.9067 72.2148 73.0638 72.0459 73.3174 71.8408C73.4745 71.6719 73.5954 71.4063 73.8852 71.2978C75.0386 70.7008 76.0532 69.8805 77.0678 69.06C77.5752 68.6498 78.2574 68.5597 78.8008 68.246C79.0243 68.1073 79.3805 68.0289 79.5376 67.86C80.0147 67.5162 80.5037 67.4983 80.9684 67.7099C81.4634 67.8551 81.9945 68.0968 82.3626 68.3445C82.966 68.7795 83.2191 69.4559 83.1825 70.2407C83.0492 71.0616 82.7832 71.822 82.4205 72.6187C82.1485 73.2162 81.8403 73.7171 81.4355 74.2542C80.6924 75.3585 79.6902 75.6234 78.5131 75.5684C78.0543 75.5199 77.535 75.6041 77.1848 75.8454C76.6656 75.9296 76.6051 76.0624 76.611 76.2254ZM79.649 73.6011C80.1623 73.3539 80.2411 72.8287 80.4888 72.4606C80.9238 71.8571 81.0932 71.1329 81.0997 70.4145C81.0759 69.7625 80.8044 69.4787 80.092 69.6352C79.5727 69.7195 79.1259 69.9969 78.7092 70.208C77.2358 70.9798 76.076 72.2951 74.5664 72.9704C74.343 73.1091 74.1859 73.2781 74.0288 73.4471C73.745 73.7186 73.4611 73.9901 73.0385 74.0381C72.4529 74.0921 71.8732 74.3091 71.2876 74.3631C70.1526 74.5677 69.0176 74.7723 67.997 75.4297C67.3569 75.7795 67.0487 76.2804 66.7767 76.8778C66.4805 77.7047 67.0353 78.5985 67.8503 78.5688C69.3173 78.5153 70.7178 78.4316 71.9257 77.5389C73.0067 76.7486 74.0576 76.0247 75.0059 75.174C75.9541 74.3234 77.1496 73.9861 78.4174 73.8419C78.8098 73.8603 79.2988 73.8424 79.649 73.6011Z" fill="black"/>
<path d="M34.2615 38.272C34.4121 38.8215 34.4661 39.4071 34.3874 39.9322C34.2903 40.8498 33.6863 41.2961 32.9496 41.6821C32.8168 41.6216 32.69 41.7241 32.6296 41.8569C31.7601 42.1824 30.8182 42.3148 30.027 42.9965C29.6465 43.3042 29.3324 43.6421 29.2175 44.0706C29.0421 44.632 28.8668 45.1931 28.9872 45.809C29.0412 46.3946 28.896 46.8896 28.5517 47.2938C28.1469 47.8309 27.8446 48.4948 27.3675 48.8387C26.2503 49.5323 25.0187 49.773 23.7876 49.1324C23.4556 48.9813 23.2143 48.631 22.8522 48.5463C22.8948 47.9246 22.1284 47.4955 22.4608 46.7652C22.878 45.6728 23.4581 44.5744 24.3098 43.7599C24.7507 43.3195 24.8656 42.891 24.6848 42.4079C24.2869 41.3452 24.6739 40.3191 24.9281 39.2327C25.0128 38.8705 25.4294 38.6595 25.7495 38.4846C26.0393 38.3761 26.3956 38.2977 26.6433 37.9296C26.7399 37.8934 26.8667 37.791 26.9633 37.7548C27.706 37.5318 28.3402 37.019 29.1913 37.0859C30.1088 37.183 31.0145 36.9541 31.9201 36.7252C32.4394 36.641 32.8317 36.6595 33.1393 37.04C33.4772 37.3541 34.0688 37.463 34.3462 37.9099C34.1228 38.0486 34.2254 38.1754 34.2615 38.272ZM25.9437 47.389C26.9038 46.8644 27.3993 46.128 27.2427 45.4156C26.9059 43.3387 28.4402 41.5527 30.149 40.9681C31.0848 40.6729 31.9483 40.1844 32.6429 39.5388C32.8 39.3699 32.9571 39.2009 32.8847 39.0077C32.7762 38.7179 32.577 38.6273 32.2813 38.5728C31.6595 38.5301 31.068 38.4211 30.4581 38.7045C29.6248 39.1266 28.6106 39.0658 27.6747 39.361C26.4792 39.6984 26.1409 40.2657 26.285 41.5335C26.4054 42.1493 26.4956 42.8315 26.1934 43.4954C25.8609 44.2257 25.4621 44.9257 24.8944 45.4687C24.4534 45.9091 24.441 46.4645 24.2295 46.9292C24.1086 47.1948 24.3137 47.4485 24.5792 47.5694C25.1406 47.7447 25.6296 47.7269 25.9437 47.389Z" fill="black"/>
<path d="M89.4916 80.3261C89.5882 80.2899 89.7815 80.2175 89.8117 80.1511C90.3676 79.2821 91.4 78.9507 92.2333 78.5286C93.2599 78.0342 95.1851 78.9106 95.42 79.9792C95.6127 80.7883 95.6122 81.6696 95.3159 82.4965C94.9592 83.4561 94.4697 84.3554 93.7449 85.0674C93.0503 85.7129 92.2834 86.1651 91.4803 86.5209C90.9972 86.7017 90.4839 86.949 90.0009 87.1298C89.2582 87.3527 88.5518 87.6722 87.719 87.213C87.2181 86.9048 86.6265 86.7958 86.1861 86.3549C85.6129 85.8535 85.3597 85.1773 85.4628 84.4227C85.6084 83.0464 86.4299 82.2983 87.553 81.7677C88.1931 81.4179 88.803 81.1345 89.238 80.5311C89.3346 80.4949 89.4312 80.4588 89.4916 80.3261ZM91.6324 84.4262C92.1818 84.2756 92.327 83.7806 92.6411 83.4427C93.3357 82.7972 93.6983 82.0006 93.729 81.0529C93.7959 80.2017 93.3917 79.8573 92.655 80.2432C91.6889 80.6049 90.8253 81.0934 90.2031 81.9322C89.9251 82.3667 89.5446 82.6744 89.0313 82.9216C88.4215 83.205 87.9142 83.6152 87.443 84.122C86.9416 84.6952 87.062 85.311 87.7863 85.4805C88.3779 85.5895 88.9694 85.6985 89.5491 85.4815C90.3883 85.2224 90.9621 84.8424 91.6324 84.4262Z" fill="black"/>
<path d="M21.6461 33.4118C21.5193 33.5144 21.3984 33.7799 21.3018 33.8161C20.4987 34.1718 20.3293 34.896 20.0271 35.5599C19.5193 36.8515 18.523 37.2796 17.1769 37.0675C16.356 36.9342 15.5954 36.6682 14.8954 36.2694C14.8894 36.1064 14.8533 36.0098 14.7205 35.9493C14.2682 35.1824 14.3351 34.3313 14.6011 33.5708C14.7463 33.0759 15.0242 32.6413 15.3022 32.2068C15.5801 31.7723 15.8942 31.4344 16.1058 30.9697C16.402 30.1429 17.1808 30.0166 17.8933 29.86C18.1529 29.8179 18.3823 29.8421 18.6057 29.7034C19.5297 29.0821 20.2962 29.5112 21.0383 30.1696C21.7805 30.828 22.2932 31.4622 22.1357 32.5125C21.9182 32.8142 21.6645 33.0194 21.6461 33.4118ZM18.0231 35.2086C18.3432 35.0337 18.5002 34.8649 18.5546 34.5691C18.7543 33.7784 19.1893 33.175 19.7932 32.7286C19.8898 32.6924 19.9201 32.6259 19.9806 32.4932C20.1014 32.2276 20.4878 32.083 20.3129 31.763C20.1078 31.5093 19.7398 31.2615 19.3474 31.2432C19.118 31.2189 18.8945 31.3577 18.7013 31.4301C18.0914 31.7134 17.5841 32.1237 17.0768 32.5339C16.4124 33.1131 16.243 33.8373 16.1399 34.5918C16.1157 34.8212 16.2544 35.0447 16.4536 35.1353C17.0149 35.3107 17.5703 35.3231 18.0231 35.2086Z" fill="black"/>
<path d="M126.841 69.7576C126.617 69.8963 126.394 70.0351 126.17 70.1739C126.007 70.1798 125.82 70.4151 125.585 70.2278C125.15 69.9499 124.879 69.666 124.728 69.1166C124.614 68.6638 124.952 68.0964 125.568 67.976C126.021 67.8616 126.473 67.7472 126.817 68.2243C127.131 68.7678 127.245 69.2206 126.841 69.7576Z" fill="black"/>
<path d="M43.5819 47.7256C43.2019 47.1518 43.4016 46.3611 43.9451 46.0475C44.549 45.6011 45.0439 45.7464 45.5205 46.2839C45.8644 46.761 45.7371 47.7449 45.1936 48.0585C44.7165 48.4023 43.9258 48.2027 43.5819 47.7256Z" fill="black"/>
<path d="M89.7948 67.1596C90.2417 66.8822 91.0627 67.0154 91.3039 67.3656C91.6839 67.9394 91.4843 68.7301 91.0072 69.0739C90.4334 69.4539 89.7091 69.2845 89.2627 68.6806C89.0517 68.2639 89.3479 67.4371 89.7948 67.1596Z" fill="black"/>
<path d="M99.7067 80.2469C99.3569 79.6068 99.4659 79.0153 100.106 78.6655C100.619 78.4183 101.247 78.624 101.561 79.1674C101.838 79.6143 101.548 80.6041 101.101 80.8816C100.751 81.1228 99.9539 80.7602 99.7067 80.2469Z" fill="black"/>
<path d="M77.6546 89.6037C77.3049 88.9636 77.3534 88.5049 78.0237 88.0887C78.5672 87.7751 79.1949 87.9808 79.5446 88.6209C79.9246 89.1946 79.8459 89.7196 79.3991 89.997C78.9883 90.3711 77.9985 90.0808 77.6546 89.6037Z" fill="black"/>
<path d="M104.198 70.0292C103.781 69.3589 103.836 69.0632 104.603 68.6108C105.146 68.2972 105.804 68.4364 106.148 68.9135C106.462 69.457 106.389 70.1452 105.942 70.4226C105.338 70.869 104.68 70.7298 104.198 70.0292Z" fill="black"/>
<path d="M56.1993 89.3744C56.2959 89.3382 56.3261 89.2718 56.4227 89.2356C57.256 88.8135 57.8233 89.1519 57.7926 90.0997C57.7861 90.8181 57.5082 91.2525 56.9226 91.3065C56.2706 91.3303 55.5647 90.7684 55.4443 90.1526C55.4685 89.9232 55.6256 89.7544 56.1993 89.3744Z" fill="black"/>
<path d="M54.7173 85.4132C54.5786 85.1897 54.5973 83.9161 54.7544 83.7471C54.7846 83.6807 54.8813 83.6444 54.8813 83.6444C55.4367 83.6568 55.9979 83.8323 56.4384 84.2732C56.746 84.6537 56.6975 85.1125 56.5826 85.541C56.4374 86.036 55.6284 86.2287 55.0913 85.8239C54.9888 85.6971 54.8198 85.54 54.7173 85.4132Z" fill="black"/>
<path d="M34.6509 65.0582C35.0011 64.8169 35.8825 64.8175 36.1842 65.035C36.4195 65.2222 36.5216 66.2305 36.3041 66.5322C35.6457 67.2743 34.9333 67.4308 34.3724 66.3741C33.9865 65.6374 34.0772 65.4382 34.6509 65.0582Z" fill="black"/>
<path d="M49.335 48.821C48.8579 49.1649 48.5621 49.1104 48.3209 48.7601C47.7719 48.0293 47.7844 47.4738 48.3883 47.0274C49.0586 46.6113 49.5174 46.6599 50.0604 47.2276C50.4042 47.7047 50.1624 48.2359 49.335 48.821Z" fill="black"/>
<path d="M51.0333 85.5807C50.792 85.2304 50.9313 84.5725 51.3781 84.295C52.0485 83.8789 52.5072 83.9275 53.0199 84.5617C53.3638 85.0388 53.2246 85.6967 52.8139 86.0708C52.3006 86.318 51.4133 86.1544 51.0333 85.5807Z" fill="black"/>
<path d="M95.4271 67.6399C94.8837 67.9535 94.2921 67.8446 93.9423 67.2045C93.6287 66.661 93.7075 66.1359 94.2509 65.8223C94.7281 65.4785 95.4222 65.7143 95.8022 66.288C96.1158 66.8315 96.0009 67.2599 95.4271 67.6399Z" fill="black"/>
<path d="M14.1502 51.6385C15.0375 51.802 15.4056 52.0497 15.526 52.6656C15.5439 53.1545 15.1391 53.6916 14.5233 53.812C14.004 53.8962 13.4006 53.4612 13.2862 53.0084C13.2802 52.8454 13.3407 52.7125 13.4012 52.5798C13.5221 52.3142 13.7093 52.0789 13.8302 51.8133C13.9268 51.7772 14.0536 51.6747 14.1502 51.6385Z" fill="black"/>
</svg>
