<svg width="84" height="86" viewBox="0 0 84 86" fill="none" xmlns="http://www.w3.org/2000/svg">
<path d="M34.0488 63.2537C35.0451 62.8711 36.1212 62.5728 36.9512 62.2676C36.9512 62.2676 37.6689 63.027 39.2352 62.8247C40.8014 62.6223 41.2915 62.7182 41.5262 63.1355C41.6834 63.3863 47.9021 64.2183 47.3705 65.5996C47.0145 66.5752 46.091 67.2884 45.1016 67.4249C44.771 67.4977 43.7469 68.8652 43.7423 69.0293C43.4707 69.9251 42.8755 70.6476 42.123 71.1192C41.2041 71.6683 39.9361 72.9468 40.7788 75.106C40.7788 75.106 41.3048 76.8456 43.2283 78.5423C45.1518 80.2391 45.842 81.9833 48.192 83.1172C50.542 84.251 51.158 82.7899 52.3728 83.399C53.6698 84.0104 53.6606 84.3387 55.1378 84.3803C56.615 84.4218 58.1476 82.4937 58.1476 82.4937C58.1476 82.4937 54.6418 81.5738 52.9368 80.8687C51.2318 80.1637 51.4942 79.5962 49.6297 78.7224C47.7629 77.9307 46.7952 74.3717 47.165 72.9037C47.3522 72.0877 47.7788 71.5247 48.1117 71.3698C48.5267 71.2172 48.693 71.1398 50.1482 69.0452C50.1482 69.0452 50.5725 68.5644 52.3918 68.1227C54.2135 67.599 52.556 68.1273 53.7534 66.4362C54.9485 64.8272 53.4528 65.4422 54.5567 64.1591C55.6605 62.876 54.4871 60.7897 55.3747 58.4328C56.2624 56.0758 54.421 54.3814 53.5229 54.1919C52.5427 54 50.8031 54.526 48.963 55.7063C47.0384 56.9663 45.9807 56.608 45.4201 56.0994C44.9416 55.5932 45.5483 54.4604 46.4788 53.5009C47.3271 52.5392 46.6891 51.8642 46.4613 51.2007C46.2336 50.5372 46.2498 49.9627 47.089 49.3293C47.9258 48.7779 49.5059 48.0831 51.3819 48.5466C53.34 49.0123 54.17 48.7071 56.1765 47.4494C58.101 46.1894 58.6801 46.0414 60.3354 45.5952C61.9929 45.0669 62.4922 44.8345 64.1092 42.8267C65.8083 40.8211 67.8541 38.1682 69.7555 37.7289C71.6569 37.2896 72.9493 38.0652 74.6068 37.5368C76.2643 37.0085 78.4512 35.181 79.5399 31.5156C80.6285 27.8502 77.4025 28.6629 76.5749 28.8861C76.5749 28.8861 80.5268 25.6297 81.9738 20.9067C83.4208 16.1837 80.2432 15.2729 78.8272 15.9723C78.1615 16.2821 76.8958 17.4785 76.7063 18.3767C76.7063 18.3767 76.8114 17.5583 76.3675 15.821C75.9236 14.0837 76.3603 10.2357 75.0044 8.80132C73.6461 7.44898 71.9007 5.26442 70.1426 6.44697C68.3822 7.71159 69.5209 11.029 69.981 12.1918C70.359 13.3523 70.4088 14.5035 70.4088 14.5035C70.4088 14.5035 68.5071 9.11137 65.429 10.5032C62.351 11.895 61.9547 17.2226 63.3834 18.9875C64.8122 20.7525 65.0514 21.0057 65.4433 21.6738C65.4433 21.6738 62.9361 20.2891 61.3607 20.8197C59.7852 21.3503 59.4951 22.9027 60.0373 24.0678C60.4199 25.0642 63.2347 27.1967 63.6902 28.5236C64.1457 29.8506 64.1907 31.166 63.9261 31.8156C63.7481 32.3034 62.3911 33.8258 61.3578 35.5215C60.3245 37.2173 58.8879 38.6553 57.2165 39.676C56.2132 40.3048 55.2122 40.8516 54.6331 40.9996C52.9778 41.4458 51.97 42.2388 50.7643 41.3014C49.2374 40.1086 49.7898 37.9887 51.9513 37.0639C54.0307 36.1368 54.7739 35.9934 55.6615 33.6365C56.6289 31.364 56.57 30.541 55.8544 29.6995C55.1389 28.8581 53.8073 29.4777 51.217 31.0475C51.217 31.0475 53.5206 27.9912 54.3123 26.1244C55.104 24.2576 55.1963 20.9749 53.8242 20.1149C52.6961 19.344 51.3622 20.0457 50.5161 20.9254C50.5161 20.9254 52.3619 16.6242 49.3923 14.1588C46.5048 11.6957 44.4335 15.2513 44.6082 17.8024C44.6082 17.8024 42.5321 15.6907 40.7833 16.5449C38.3664 17.7911 39.7351 21.6899 39.7351 21.6899C39.2751 20.5271 38.4 19.5168 36.9135 19.8036C34.8503 20.1562 34.2702 23.261 34.2702 23.261C34.2702 23.261 33.0425 20.1875 30.6938 21.9284C30.6938 21.9284 29.294 22.0533 28.9103 24.0137C28.5243 26.0562 29.1116 28.5367 29.1116 28.5367C29.1116 28.5367 27.401 30.9526 26.8462 33.1546C26.7503 33.6447 25.6696 34.1071 25.0766 34.7475C24.5704 35.226 24.0895 34.8018 23.6907 34.3799C23.2943 33.876 22.9093 32.9617 21.7788 32.2728C21.7788 32.2728 20.1628 31.3239 18.533 30.8674C16.8211 30.4086 13.1903 28.0889 14.2721 24.6697C15.4359 21.2528 17.5131 20.4078 18.343 20.1026C19.1729 19.7974 23.7848 19.3522 25.3336 16.8496C25.3336 16.8496 26.8825 14.347 24.7579 13.9587C23.2055 13.6687 21.785 14.5322 21.785 14.5322C21.785 14.5322 24.3162 12.1394 24.2757 10.6598C24.2872 10.2495 23.8861 9.90967 23.4781 9.81606C22.9059 9.71783 22.254 9.53523 20.5826 10.556C20.5826 10.556 23.3265 6.44432 20.3823 3.07617C17.4381 -0.29198 16.0442 2.54349 15.4513 3.18388C14.856 3.90634 12.6659 8.77274 12.6289 10.0858C12.6289 10.0858 12.6623 5.98011 9.76681 6.72C6.87133 7.45989 7.13499 9.76704 7.12576 10.0953C7.11653 10.4236 7.66454 14.2993 7.56863 14.7894C7.56863 14.7894 5.92369 11.9506 3.83735 13.1239C3.83735 13.1239 2.5832 13.91 2.68732 16.0484C2.70937 18.1845 4.78543 20.2962 5.07446 21.7006C5.8005 25.0885 5.97754 27.5575 9.0292 30.0252C12.0786 32.5749 12.4114 32.42 13.7199 32.6211C16.0086 33.014 16.0085 33.014 16.6443 33.7711C17.5217 34.6992 16.7231 36.8122 18.4916 38.1761C18.9725 38.6003 19.2187 38.6072 20.1943 38.9632C21.008 39.2325 22.9546 40.1086 22.9997 41.424C23.1269 42.7417 22.7144 42.8122 23.8854 44.9806C25.1361 47.2334 24.1318 50.819 24.1318 50.819C24.1318 50.819 24.822 52.5633 25.2936 53.3157C25.8427 54.2346 26.8795 55.3315 27.3466 56.2481C28.2032 57.9149 28.9477 60.6463 29.9707 62.2356C30.5221 63.0724 31.4341 62.7695 31.5705 63.759C31.6434 64.0895 31.7983 64.4224 32.0468 64.3473C32.1311 64.2675 32.2155 64.1878 32.2178 64.1057C32.8813 63.8779 33.465 63.5659 34.0488 63.2537Z" fill="#9CCB3B"/>
<path d="M34.1284 63.3383C35.8726 62.6482 36.9533 62.1858 36.9533 62.1858C36.9533 62.1858 37.6711 62.9452 39.2374 62.7428C40.8036 62.5405 41.036 63.0398 41.5284 63.0537C46.6825 63.7736 46.0227 66.7939 45.1037 67.343C42.8487 68.6758 42.8776 70.5657 42.1252 71.0374C41.2063 71.5865 39.9383 72.8649 40.781 75.0241C40.781 75.0241 41.307 76.7637 43.2305 78.4605C45.154 80.1572 45.8442 81.9015 48.1942 83.0353C50.5441 84.1691 51.1601 82.7081 52.375 83.3172C53.5899 83.9263 53.6627 84.2569 55.14 84.2984C56.6172 84.34 58.1498 82.4119 58.1498 82.4119C58.1498 82.4119 54.6439 81.4919 52.939 80.7869C51.234 80.0819 51.4964 79.5143 49.6319 78.6405C47.7651 77.8488 46.7974 74.2899 47.1672 72.8219C47.3544 72.0058 47.781 71.4429 48.1139 71.288C48.5289 71.1354 50.2071 69.8684 50.8324 68.0791C50.8324 68.0791 53.7961 67.8339 54.9669 64.1708C56.044 60.9158 54.5714 60.7101 55.4568 58.4353C56.3444 56.0784 54.5029 54.3839 53.6048 54.1944C52.7067 54.0048 50.885 54.5285 49.0449 55.7088C47.1204 56.9688 46.0627 56.6105 45.502 56.1019C45.0235 55.5957 45.6303 54.4629 46.5608 53.5034C47.4092 52.5417 46.771 51.8667 46.5433 51.2032C46.3155 50.5397 46.3317 49.9652 47.1709 49.3318C48.0077 48.7804 49.5878 48.0856 51.4638 48.5491C53.4219 49.0148 54.2519 48.7096 56.2585 47.4519C58.183 46.1919 58.7621 46.0439 60.4173 45.5977C62.0748 45.0694 62.5741 44.837 64.1912 42.8292C65.8082 40.8213 67.936 38.1708 69.8374 37.7314C71.7389 37.2921 73.0312 38.0677 74.6887 37.5394C76.3463 37.011 78.5332 35.1835 79.6219 31.5181C80.7106 27.8527 77.4845 28.6654 76.6568 28.8886C76.6568 28.8886 80.6087 25.6322 82.0557 20.9092C83.5027 16.1862 80.3251 15.2755 78.9092 15.9748C78.2434 16.2846 76.9777 17.481 76.7882 18.3792C76.7882 18.3792 76.8934 17.5608 76.4494 15.8235C76.0055 14.0862 76.4422 10.2382 75.0863 8.80383C73.7281 7.45149 71.9826 5.26692 70.2245 6.44948C68.4665 7.63203 69.6028 11.0315 70.0629 12.1943C70.441 13.3548 70.4907 14.506 70.4907 14.506C70.4907 14.506 68.5891 9.11388 65.511 10.5057C62.3531 11.8132 62.0366 17.2251 63.4653 18.9901C64.8941 20.755 65.1335 21.0082 65.5253 21.6763C65.5253 21.6763 63.0181 20.2916 61.4427 20.8222C59.8672 21.3529 59.5772 22.9052 60.1193 24.0704C60.502 25.0667 63.3166 27.1992 63.7721 28.5262C64.2276 29.8531 64.2728 31.1685 64.0081 31.8181C63.8301 32.3059 62.4731 33.8283 61.4398 35.524C60.4065 37.2198 58.9698 38.6578 57.2984 39.6785C56.2951 40.3073 55.2942 40.8541 54.7151 41.0021C53.0599 41.4483 52.0519 42.2413 50.8463 41.304C49.3193 40.1111 49.8717 37.9912 52.0332 37.0664C54.1126 36.1393 54.8559 35.9959 55.7435 33.639C56.7109 31.3665 56.6519 30.5435 55.9364 29.702C55.2208 28.8606 53.8893 29.4802 51.299 31.05C51.299 31.05 53.6025 27.9937 54.3943 26.1269C55.186 24.2601 55.2783 20.9774 53.9062 20.1175C52.778 19.3465 51.4441 20.0482 50.598 20.9279C50.598 20.9279 52.4438 16.6267 49.4742 14.1613C46.5867 11.6982 44.5155 15.2539 44.6902 17.8049C44.6902 17.8049 42.6141 15.6932 40.8652 16.5475C38.4483 17.7936 39.8171 21.6924 39.8171 21.6924" fill="#9CCB3B"/>
<path d="M40.7644 25.9892C40.7644 25.9892 40.1402 24.8218 40.0199 23.2579C39.8997 21.694 38.9748 19.5325 36.9116 19.8851C34.8483 20.2377 34.2682 23.3425 34.2682 23.3425C34.2682 23.3425 33.0405 20.269 30.6918 22.0099C30.6918 22.0099 29.292 22.1348 28.9084 24.0952C28.5224 26.1377 29.1096 28.6182 29.1096 28.6182C29.1096 28.6182 27.399 31.0341 26.8443 33.2361C26.7483 33.7262 25.6676 34.1886 25.0747 34.829C24.5684 35.3076 24.0876 34.8834 23.6888 34.4615C23.29 34.0396 22.9073 33.0432 21.7768 32.3544C21.7768 32.3544 20.1609 31.4054 18.531 30.9489C16.9012 30.4924 13.1883 28.1704 14.2701 24.7512C15.3519 21.332 17.5111 20.4893 18.341 20.1841C19.1709 19.8789 23.7829 19.4337 25.3316 16.9311C25.3316 16.9311 26.8805 14.4286 24.756 14.0403C23.2036 13.7502 21.783 14.6137 21.783 14.6137C21.783 14.6137 24.3143 12.2209 24.2737 10.7414C24.2853 10.331 23.8842 9.99121 23.4761 9.8976C22.904 9.79937 22.252 9.61677 20.5807 10.6375C20.5807 10.6375 23.3246 6.52586 20.3804 3.15771C17.4362 -0.210437 16.0423 2.62503 15.4493 3.26542C14.8564 3.90581 12.6639 8.85429 12.627 10.1674C12.627 10.1674 12.6603 6.06165 9.76486 6.80154C6.86938 7.54144 7.13304 9.84859 7.12381 10.1769C7.11457 10.5051 7.66259 14.3808 7.56667 14.8709C7.56667 14.8709 5.92174 12.0321 3.8354 13.2054C3.8354 13.2054 2.58125 13.9915 2.68537 16.1299C2.70742 18.266 4.78347 20.3777 5.07251 21.7821C5.79855 25.17 5.97559 27.639 9.02725 30.1067C12.0789 32.5744 12.4094 32.5016 13.7179 32.7026C16.0066 33.0955 16.0066 33.0955 16.6424 33.8526C17.5197 34.7808 16.7211 36.8938 18.4897 38.2577C18.9706 38.6819 19.2167 38.6888 20.1923 39.0447C21.0061 39.314 22.9526 40.1901 22.9978 41.5055C23.125 42.8232 22.7124 42.8938 23.8834 45.0622C25.1342 47.315 24.1299 50.9006 24.1299 50.9006" fill="#9CCB3B"/>
<path d="M48.4881 28.8362C48.4881 28.8362 45.469 31.051 43.9525 32.4046C42.436 33.7582 40.3579 37.56 42.5461 38.6072C44.7342 39.6543 45.43 38.2776 45.8703 37.2223C46.2309 36.0826 46.9255 31.8312 48.4881 28.8362Z" fill="#27A84A"/>
<path d="M33.0952 27.0889C33.0952 27.0889 34.6535 30.0895 34.5322 31.4824C34.4791 33.3699 34.1683 35.6609 35.6178 36.6873C37.0696 37.6316 38.9097 36.4514 38.4345 32.9063C38.1072 29.9403 33.0952 27.0889 33.0952 27.0889Z" fill="#27A84A"/>
<path d="M27.48 36.9507C27.48 36.9507 31.9752 37.7342 32.907 39.6495C33.8387 41.5647 32.9557 43.7575 34.6538 44.7087C36.3518 45.66 38.6867 44.4115 39.5351 43.4498C40.3835 42.488 42.5564 41.1529 46.3975 41.8358C46.3975 41.8358 42.9497 44.6957 41.4193 46.5417C39.2117 49.1079 36.2618 48.8606 34.9395 49.152C33.2843 49.5982 29.7102 48.1836 29.2662 46.4463C28.9044 44.7113 30.5352 42.211 30.3236 40.9731C30.1167 39.571 29.0254 37.487 27.48 36.9507Z" fill="#27A84A"/>
<path d="M45.9361 55.2923C46.3372 55.6321 46.7476 55.6437 47.1648 55.409C47.6642 55.1767 48.1635 54.9443 48.6652 54.6299C49.5887 53.9167 50.6648 53.6184 51.823 53.3224C53.1453 53.0311 54.2851 53.3917 55.2445 54.3221C55.8826 54.9971 56.1057 55.8248 56.0803 56.7275C56.0688 57.1379 56.055 57.6303 55.8793 58.036C55.7082 58.2776 55.6989 58.6059 55.6897 58.9341C55.7487 59.7571 55.8054 60.6622 55.7823 61.4829C55.7546 62.4677 55.6425 63.5323 55.3686 64.5102C55.0034 65.814 54.0753 66.6914 53.1471 67.5687C52.8917 67.8901 52.3946 68.0404 52.0618 68.1953C51.478 68.5074 50.9741 68.9039 50.6297 69.4692C50.1142 70.276 49.4369 70.9962 48.6023 71.4655C47.599 72.0943 47.5736 72.9971 47.7101 73.9865C47.8511 74.8118 48.1563 75.6417 48.4638 76.3896C48.7736 77.0554 49.4186 77.4842 50.0636 77.913C50.7907 78.3441 51.5155 78.8573 52.1605 79.2861C52.6436 79.6282 53.1315 79.8062 53.6193 79.9842C54.9185 80.5135 56.2223 80.8787 57.6059 81.3283C58.5815 81.6843 58.7319 82.1813 58.0523 82.9835C56.7797 84.4262 55.2862 84.9591 53.4102 84.4956C53.0021 84.402 52.6809 84.1466 52.2751 83.9709C51.6255 83.7062 51.051 83.6901 50.3898 83.8358C48.7392 84.1179 47.3579 83.5862 45.9904 82.5621C44.9466 81.7115 44.1536 80.7036 43.2786 79.6933C42.7202 79.1027 42.1619 78.5121 41.6013 78.0035C41.0407 77.4949 40.6488 76.8268 40.2547 76.2408C40.02 75.8235 39.7853 75.4063 39.5506 74.989C39.4755 74.7405 39.3981 74.5741 39.405 74.3279C39.4189 73.8354 39.5148 73.3453 39.4466 72.8506C39.376 72.438 39.7112 72.201 39.8846 71.8773C40.1447 71.3918 40.4047 70.9064 40.9063 70.5919C41.2415 70.355 41.497 70.0336 41.6704 69.7099C42.0992 69.0649 42.4459 68.4176 42.8747 67.7726C43.0458 67.531 43.1325 67.3692 43.381 67.2941C43.7959 67.1415 44.0514 66.8201 44.3068 66.4988C44.8154 65.9381 44.7402 65.6896 44.264 65.1013C43.9449 64.7638 43.5415 64.5061 43.1358 64.3304C41.7545 63.7987 40.4553 63.2694 38.8913 63.3897C38.3989 63.3758 37.9088 63.2799 37.4187 63.184C36.4408 62.9101 35.6907 63.2996 34.7787 63.6025C34.1152 63.8303 33.2899 63.9713 32.8634 64.5342C32.7767 64.6961 32.69 64.8579 32.5235 64.9353C32.3571 65.0128 32.1907 65.0902 32.0311 64.9215C31.8855 64.2603 32.1524 63.5286 32.6587 63.0501C32.9095 62.8929 33.1603 62.7357 33.4112 62.5784C33.662 62.4212 33.9949 62.2663 34.2457 62.1091C34.663 61.8744 35.1577 61.8062 35.5749 61.5716C36.0766 61.2572 36.487 61.2687 36.9725 61.5287C37.9457 61.9668 39.0126 61.9968 40.0818 61.9447C41.0666 61.9724 41.9601 62.3261 42.938 62.6C43.1819 62.689 43.4258 62.778 43.6697 62.867C45.2972 63.4056 46.0833 64.6597 45.8707 66.3785C45.7679 67.1148 45.5078 67.6003 44.842 67.9101C44.0918 68.2997 43.5786 69.0244 43.1475 69.7515C42.7141 70.5606 42.2807 71.3698 41.4461 71.8391C40.8624 72.1512 40.6706 73.1314 40.896 73.877C41.2718 75.1196 41.896 76.287 42.7711 77.2972C43.0103 77.5503 43.2542 77.6393 43.5779 77.8127C44.3801 78.4923 45.0112 79.4135 45.7268 80.255C46.6041 81.1831 47.5682 81.9495 48.79 82.3124C49.3599 82.4927 49.8546 82.4244 50.3516 82.2741C51.2636 81.9713 52.1617 82.1608 52.9686 82.6763C53.6933 83.1895 54.514 83.2126 55.3393 83.0715C55.5879 82.9964 55.8387 82.8392 55.8456 82.5929C55.8525 82.3467 55.6086 82.2577 55.4468 82.1711C55.2029 82.0821 54.959 81.9931 54.7949 81.9885C53.1628 81.614 51.704 80.9159 50.3388 79.8098C49.9377 79.47 49.3701 79.2076 48.887 78.8655C48.0778 78.4321 47.4443 77.5929 46.975 76.7584C46.1936 75.3401 45.9912 73.7739 46.1992 72.2192C46.3044 71.4008 46.813 70.8402 47.399 70.446C48.4046 69.7351 49.1662 68.9352 49.773 67.8024C50.0331 67.3169 50.3706 66.9979 50.9474 66.932C52.1853 66.7204 52.9493 65.8384 53.5515 64.8697C53.9826 64.1427 54.2543 63.2468 54.3617 62.3464C54.4622 61.6921 54.3964 61.1154 54.2484 60.5363C54.0276 59.6266 54.2148 58.8105 54.4841 57.9968C54.751 57.2651 54.4689 55.6145 53.8262 55.1036C53.3453 54.6794 52.6888 54.6609 52.0277 54.8066C50.9538 55.0228 50.0372 55.4898 49.116 56.121C48.0284 56.8296 46.8655 57.2897 45.4819 56.8401C44.4242 56.4818 44.0394 55.5675 44.4751 54.6763C44.7328 54.2729 44.9107 53.7851 45.2506 53.384C45.6748 52.9031 45.9371 52.3356 45.6273 51.6698C45.3927 51.2525 45.4089 50.678 45.4227 50.1856C45.4343 49.7753 45.6076 49.4516 45.8631 49.1303C46.5381 48.4922 47.3702 48.1049 48.2799 47.8841C49.2717 47.6656 50.1767 47.6089 51.1592 47.7187C51.5696 47.7302 51.8956 47.8215 52.3059 47.8331C53.0445 47.8538 53.7057 47.7082 54.4558 47.3186C55.7897 46.6169 56.9687 45.5823 58.5395 45.2159C58.9522 45.1453 59.2851 44.9904 59.6978 44.9199C60.6074 44.6991 61.442 44.2298 62.117 43.5917C62.7099 42.9513 63.3826 42.3953 63.8935 41.7526C64.32 41.1896 64.7488 40.5446 65.2574 39.984C66.1924 38.8604 67.3691 37.9079 68.6186 37.286C69.2844 36.9762 70.0276 36.8328 70.7639 36.9357C71.1742 36.9472 71.5025 36.9564 71.9129 36.968C74.1218 37.2765 75.7112 36.2535 77.0704 34.649C78.0078 33.4434 78.5371 32.1442 78.7428 30.6716C78.8456 29.9352 78.4469 29.5134 77.6262 29.4903C77.2979 29.481 76.9696 29.4718 76.557 29.5423C76.2287 29.5331 75.9027 29.4418 75.7478 29.1089C75.5929 28.776 75.764 28.5344 76.0172 28.2952C76.357 27.894 76.699 27.4109 77.1186 27.0941C77.8757 26.4584 78.3912 25.6515 78.9067 24.8447C79.2511 24.2794 79.6753 23.7986 80.0174 23.3154C80.1908 22.9917 80.4439 22.7525 80.5352 22.4265C80.7248 21.5283 81.1605 20.6371 81.3524 19.6569C81.4552 18.9206 81.3939 18.1797 81.002 17.5116C80.4529 16.5927 79.4727 16.4009 78.7133 17.1187C78.207 17.5973 77.621 17.9914 77.3564 18.6411C77.2674 18.885 77.0143 19.1243 76.686 19.115C76.3578 19.1058 76.1184 18.8527 76.0456 18.5221C75.8456 16.8738 75.2352 15.2139 75.2837 13.4905C75.316 12.3415 75.1841 11.188 74.8038 10.1095C74.5737 9.52813 74.0952 9.02187 73.6143 8.59767C73.1334 8.17348 72.5705 7.74698 72.0075 7.32048C71.203 6.72292 70.209 7.02349 70.0172 8.00369C69.8369 8.57356 69.8208 9.14804 69.9687 9.72714C70.1895 10.6368 70.4104 11.5465 70.7132 12.4585C70.9433 13.0399 71.0068 13.6987 70.9883 14.3553C70.9814 14.6015 71.0543 14.9321 70.7237 15.0049C70.3932 15.0777 69.8209 14.9795 69.6637 14.7287C69.5065 14.4779 69.2673 14.2247 69.1944 13.8942C69.0557 12.9868 68.4153 12.3938 67.857 11.8032C67.4582 11.3813 66.9727 11.1213 66.3982 11.1051C66.0699 11.0959 65.7394 11.1687 65.4042 11.4057C64.394 12.2807 63.5455 13.2425 63.5063 14.6376C63.4901 15.2121 63.2278 15.7797 63.3734 16.4408C63.5145 17.2661 63.5711 18.1712 64.2913 18.8485C64.7698 19.3548 65.1618 20.0229 65.5583 20.5268C65.7155 20.7777 65.9548 21.0308 66.0276 21.3614C66.1733 22.0225 65.8335 22.4236 65.1815 22.241C64.6914 22.1451 64.2856 21.9694 63.7955 21.8735C63.0638 21.6065 62.4073 21.5881 61.6641 21.7314C60.8388 21.8725 60.41 22.5175 60.5511 23.3428C60.6193 23.8375 60.936 24.2571 61.3371 24.5969C62.1371 25.3586 62.9346 26.2024 63.5681 27.0415C64.5183 28.3003 65.0512 29.7937 64.5103 31.5032C64.2388 32.3991 63.8897 33.1285 63.2967 33.7688C62.6217 34.4069 62.268 35.3005 61.6728 36.0229C60.562 37.5522 59.3715 38.9971 57.8643 40.0225C56.9431 40.6536 55.9421 41.2004 54.8637 41.5807C53.8673 41.9634 52.953 42.3483 51.8838 42.4004C51.1429 42.4617 50.491 42.2791 49.9303 41.7705C49.6887 41.5994 49.5315 41.3486 49.4587 41.018C49.4656 40.7718 49.3061 40.6031 49.2286 40.4366C48.6865 39.2715 49.0401 38.378 49.8041 37.496C50.315 36.8533 51.0652 36.4638 51.731 36.1539C52.5632 35.7667 53.3977 35.2974 53.9929 34.5749C54.4148 34.1761 54.5131 33.6039 54.6911 33.1161C54.9558 32.4665 55.2181 31.8989 55.2389 31.1603C55.1776 30.4194 54.7788 29.9975 54.0332 30.223C53.2877 30.4484 52.615 31.0044 51.8695 31.2298C51.703 31.3073 51.6163 31.4691 51.4522 31.4645C51.1216 31.5373 50.7865 31.7743 50.4651 31.5189C50.2281 31.1837 50.3194 30.8577 50.4928 30.534C50.7529 30.0486 51.0152 29.481 51.3573 28.9978C52.4658 27.5506 53.3326 25.9323 53.7093 24.2181C53.9856 23.1581 53.9335 22.0889 53.3047 21.0856C52.9879 20.6661 52.7463 20.495 52.2493 20.6453C51.7523 20.7956 51.2576 20.8638 50.8357 21.2626C50.5803 21.584 50.1745 21.4083 49.8485 21.317C49.6844 21.3124 49.5249 21.1436 49.5318 20.8974C49.5388 20.6512 49.5457 20.405 49.6347 20.1611C49.993 19.1034 50.0229 18.0365 49.8067 16.9627C49.5975 15.6427 48.8842 14.7192 47.585 14.1898C47.0972 14.0118 46.6025 14.0801 46.2627 14.4812C45.7564 14.9597 45.3299 15.5227 45.2294 16.1769C45.2155 16.6693 45.0398 17.0751 44.9462 17.4831C44.8434 18.2194 44.2597 18.5315 43.6147 18.1027C43.2933 17.8473 42.8852 17.7537 42.5662 17.4161C41.4426 16.4811 40.0198 17.4267 39.9031 18.6554C39.7934 19.6379 39.85 20.543 40.235 21.4573C40.3876 21.8722 40.5379 22.3692 40.524 22.8616C40.5876 23.5205 40.7333 24.1817 40.961 24.8451C41.0385 25.0116 41.1136 25.2601 41.109 25.4242C41.2523 26.1675 40.8328 26.4842 40.1808 26.3016C40.019 26.2149 39.8549 26.2103 39.8595 26.0462C39.634 25.3006 39.2445 24.5505 39.2699 23.6477C39.2884 22.9912 39.0606 22.3277 38.7485 21.744C38.4364 21.1603 38.0422 20.5742 37.3036 20.5535C36.565 20.5327 35.979 20.9269 35.7143 21.5765C35.4519 22.144 35.0277 22.6249 34.9272 23.2792C34.8266 23.9334 34.2475 24.0814 33.6846 23.6549C33.443 23.4838 33.2038 23.2307 33.0466 22.9799C32.5773 22.1453 32.0871 22.0494 31.2549 22.4367C31.0064 22.5118 30.84 22.5893 30.5891 22.7465C29.7546 23.2158 29.4876 23.9475 29.4622 24.8503C29.4576 25.0144 29.5327 25.2629 29.5281 25.427C29.4229 26.2454 29.4797 27.1505 29.6207 27.9758C29.6889 28.4705 29.593 28.9606 29.4173 29.3663C29.1572 29.8518 28.8972 30.3373 28.6371 30.8228C28.2106 31.3857 28.0281 32.0377 27.8455 32.6896C27.5785 33.4213 27.3115 34.153 26.6411 34.6269C26.3036 34.946 25.884 35.2627 25.5488 35.4997C24.9628 35.8938 23.9825 35.702 23.5017 35.2778C23.1803 35.0224 23.0254 34.6895 22.7064 34.352C22.1504 33.6793 21.51 33.0863 20.6188 32.6506C19.3218 32.0392 17.9382 31.5896 16.6436 30.8961C16.1581 30.6361 15.6749 30.2939 15.2761 29.872C14.8797 29.3681 14.3144 29.0237 14.0046 28.3579C13.3052 26.9419 13.0983 25.5399 13.7143 24.0788C14.2437 22.7795 14.9371 21.4849 16.0317 20.5301C16.3692 20.211 16.7819 20.1405 17.1171 19.9035C17.9539 19.3522 18.941 19.2978 19.9327 19.0793C20.8424 18.8585 21.7521 18.6377 22.589 18.0863C22.7554 18.0088 22.9195 18.0134 23.086 17.936C24.0003 17.551 24.6777 16.8309 25.0336 15.8553C25.2139 15.2854 24.9769 14.9502 24.4047 14.852C23.6684 14.7491 23.0847 15.0613 22.4235 15.2069C22.0109 15.2775 21.7624 15.3526 21.5254 15.0174C21.2884 14.6822 21.3797 14.3562 21.6352 14.0349C21.975 13.6338 22.3171 13.1506 22.739 12.7518C23.0788 12.3507 23.3366 11.9473 23.5146 11.4595C23.6949 10.8896 23.4556 10.6365 22.8788 10.7024C22.4684 10.6909 22.0558 10.7614 21.7183 11.0804C21.5495 11.2399 21.3011 11.3151 21.0548 11.3082C20.7243 11.381 20.3983 11.2897 20.2434 10.9568C20.0885 10.6239 20.0954 10.3777 20.3508 10.0563C20.8663 9.24951 21.1379 8.35369 21.3297 7.37349C21.5262 6.22914 21.1459 5.15071 20.5147 4.22949C20.1229 3.5614 19.5599 3.13489 18.9993 2.62632C18.5184 2.20213 17.7798 2.18136 17.3556 2.66223C16.5939 3.46214 15.8322 4.26205 15.5537 5.40408C15.4555 5.97625 15.1133 6.45943 14.8509 7.02698C14.4106 8.08233 14.0524 9.13999 13.6918 10.2797C13.5982 10.6878 13.3473 10.845 12.937 10.8334C12.5266 10.8219 12.285 10.6508 12.2145 10.2382C12.144 9.82552 11.989 9.49263 12.0006 9.08229C12.1126 8.0177 10.6563 7.23755 9.65297 7.86639C8.73406 8.41548 8.30294 9.14256 8.35269 10.2938C8.32038 11.4428 8.53649 12.5166 8.58855 13.5858C8.57701 13.9961 8.56555 14.4065 8.63608 14.8191C8.62684 15.1474 8.6199 15.3936 8.28701 15.5485C7.95412 15.7034 7.62586 15.6942 7.38889 15.359C7.06985 15.0215 6.67101 14.5996 6.35197 14.2621C5.63413 13.5027 4.47597 13.7987 4.12 14.7742C3.59066 16.0735 3.97097 17.1519 4.51313 18.317C5.05761 19.4001 5.60204 20.4831 6.22858 21.5685C6.38348 21.9014 6.45636 22.232 6.44712 22.5602C6.43789 22.8885 6.50836 23.3012 6.66326 23.6341C6.891 24.2975 6.8703 25.0362 7.10035 25.6176C7.55814 26.8624 8.35108 27.8703 9.22614 28.8805C9.78215 29.5533 10.589 30.0687 11.3137 30.5819C11.4756 30.6686 11.5553 30.753 11.7172 30.8397C12.6766 31.7701 13.8984 32.133 15.2092 32.252C16.52 32.371 17.573 32.8935 18.1129 34.1406C18.425 34.7244 18.4065 35.3809 18.5545 35.96C18.7661 37.198 19.4817 38.0394 20.7058 38.3202C21.6016 38.5918 22.4928 39.0276 23.2152 39.6228C23.9354 40.3002 24.4047 41.1347 24.377 42.1195C24.3516 43.0223 24.6591 43.7701 25.0487 44.5203C25.5134 45.5189 25.896 46.5153 25.8637 47.6643C25.836 48.6491 25.8106 49.5518 25.6187 50.5321C25.6118 50.7783 25.5252 50.9401 25.4385 51.1019C25.2651 51.4256 25.094 51.6672 24.686 51.5735C24.278 51.4799 24.2849 51.2337 24.2144 50.8211C24.2352 50.0825 24.2536 49.4259 24.3564 48.6896C24.3772 47.951 24.3137 47.2921 24.1703 46.5489C24.027 45.8057 23.8812 45.1445 23.3206 44.6359C22.9218 44.214 22.8536 43.7193 22.8697 43.1449C22.8813 42.7345 22.8108 42.3219 22.7403 41.9092C22.5969 41.166 22.1184 40.6597 21.471 40.313C20.9058 39.9685 20.2561 39.7039 19.6019 39.6033C18.5396 39.4092 17.9039 38.6521 17.5166 37.8199C17.2068 37.1541 16.897 36.4883 16.92 35.6676C16.9339 35.1752 16.6172 34.7556 16.4669 34.2586C16.3917 34.0101 16.1456 34.0032 15.9837 33.9165C15.2497 33.7316 14.518 33.4646 13.6973 33.4415C12.6304 33.4115 11.8236 32.896 11.1012 32.3008C10.1371 31.5344 9.08869 30.8479 8.29109 30.0041C7.17445 28.8228 6.1422 27.5618 5.8624 25.8291C5.86471 25.7471 5.78487 25.6627 5.78948 25.4985C5.2404 24.5796 5.27048 23.5128 5.13405 22.5233C5.0589 22.2748 5.14784 22.0309 4.98832 21.8621C4.28202 20.6924 3.82656 19.3655 2.95381 18.2732C2.79429 18.1044 2.71911 17.8559 2.72603 17.6097C2.5919 16.5382 2.45777 15.4667 2.81606 14.409C3.35463 12.7815 4.60652 12.0775 6.24096 12.3699C6.97727 12.4727 6.89512 12.4704 6.99797 11.7341C7.02797 10.6672 6.97367 9.6801 7.24988 8.62014C7.51917 7.80638 8.02999 7.16367 8.78245 6.69203C9.61699 6.2227 10.4424 6.08166 11.3428 6.18912C11.8352 6.20297 12.3207 6.46302 12.7241 6.72077C13.1252 7.06059 13.2916 6.98313 13.5517 6.49765C13.7274 6.09192 13.9828 5.77056 14.0764 5.36253C14.437 4.2228 15.0392 3.25415 15.7234 2.28779C16.2366 1.56303 16.9891 1.09139 17.7347 0.865957C18.3138 0.717978 19.0523 0.73875 19.5355 1.08087C20.9076 1.9408 22.0243 3.12208 22.5549 4.69754C22.9352 5.77597 22.9896 6.76311 22.7955 7.82538C22.6903 8.64376 22.7655 8.89227 23.5815 9.07949C23.9075 9.17079 24.2357 9.18002 24.5594 9.35339C25.2044 9.7822 25.4322 10.4457 25.1606 11.3415C25.0693 11.6675 24.9779 11.9934 24.8866 12.3194C24.7063 12.8893 24.7814 13.1378 25.4334 13.3204C25.6773 13.4094 26.0056 13.4186 26.2448 13.6717C27.1314 14.2716 27.113 14.9282 26.8391 15.9061C26.4739 17.2099 25.7099 18.0919 24.6199 18.8826C23.8652 19.4363 22.9578 19.575 22.2076 19.9646C21.4598 20.2721 20.6344 20.4131 19.8091 20.5542C18.2406 20.8386 16.9021 21.7044 16.0399 23.1586C15.4331 24.2914 14.9061 25.5086 15.3616 26.8355C15.5916 27.4169 15.988 27.9209 16.3868 28.3428C17.1844 29.1865 18.2375 29.7089 19.3773 30.0695C20.6788 30.5168 22.0601 31.0485 23.1837 31.9835C23.6645 32.4077 23.9789 32.9094 24.4575 33.4156C24.9361 33.9219 25.1823 33.9288 25.6862 33.5323C26.5231 32.9809 26.8745 32.1695 27.2281 31.276C27.4928 30.6263 27.7598 29.8946 28.1042 29.3294C28.622 28.4405 28.6451 27.6198 28.5907 26.6327C28.5225 26.138 28.4566 25.5612 28.4705 25.0688C28.4115 24.2458 28.6785 23.5141 28.9455 22.7824C29.1258 22.2125 29.5453 21.8958 29.9649 21.5791C30.8017 21.0277 31.6363 20.5583 32.7009 20.6704C33.1112 20.6819 33.5169 20.8576 33.9227 21.0333C34.3284 21.209 34.6612 21.0541 34.9167 20.7327C35.0034 20.5709 35.0901 20.4091 35.1768 20.2472C35.6969 19.2763 36.6088 18.9734 37.5959 18.919C37.8421 18.9259 38.0063 18.9306 38.2525 18.9375C38.8293 18.8716 38.9114 18.8739 39.0119 18.2196C39.2974 16.8314 40.6451 15.6373 41.9605 15.5922C42.535 15.6083 43.1071 15.7066 43.677 15.8868C44.2492 15.9851 44.3312 15.9874 44.5913 15.5019C44.678 15.3401 44.7647 15.1782 44.7693 15.0141C45.0455 13.9541 45.8048 13.2363 46.8012 12.8536C48.0461 12.3959 49.2702 12.6767 50.232 13.5251C51.3556 14.4602 51.8954 15.7073 52.1001 17.1915C52.1729 17.5221 52.0839 17.766 52.0747 18.0943C51.9719 18.8306 52.2932 19.086 53.0318 19.1068C54.2628 19.1414 54.983 19.8187 55.4454 20.8995C55.9055 22.0623 55.9529 23.2956 55.8339 24.6064C55.7264 25.5068 55.4594 26.2385 54.9463 26.9633C54.6908 27.2847 54.5972 27.6927 54.4215 28.0984C54.2459 28.5041 54.4054 28.6729 54.8134 28.7665C54.9776 28.7711 55.0573 28.8555 55.2215 28.8601C56.6212 28.7352 57.2454 29.9026 57.2952 31.0539C57.3519 31.959 56.9982 32.8525 56.7289 33.6662C56.462 34.3979 56.1973 35.0476 55.7708 35.6105C55.0022 36.6566 53.7549 37.1965 52.6742 37.6589C52.0084 37.9687 51.4224 38.3629 51.2375 39.0969C51.0595 39.5847 51.1278 40.0794 51.5289 40.4192C51.93 40.759 52.4131 41.1011 52.9945 40.8711C54.155 40.4931 55.3156 40.115 56.401 39.4885C57.1511 39.0989 57.9013 38.7094 58.4942 38.069C58.9161 37.6702 59.42 37.2737 59.8419 36.8749C60.3459 36.4784 60.5261 35.9085 60.8683 35.4253C61.6392 34.2972 62.3304 33.0846 63.2632 32.0431C63.9405 31.3229 63.9659 30.4202 63.6607 29.5903C63.2827 28.4298 62.5671 27.5883 61.7695 26.7445C61.1291 26.1516 60.4911 25.4766 60.1015 24.7264C59.6322 23.8919 59.3339 22.8158 59.854 21.8448C60.3741 20.8738 61.1335 20.156 62.3645 20.1906C62.6107 20.1975 62.8593 20.1224 63.1055 20.1293C63.4361 20.0565 63.5227 19.8947 63.3655 19.6438C63.1285 19.3086 62.9783 18.8116 62.8257 18.3966C62.4384 17.5644 62.4638 16.6617 62.4869 15.841C62.5169 14.7741 62.7931 13.7141 63.067 12.7362C63.0716 12.5721 63.0739 12.49 63.1606 12.3282C63.6714 11.6855 64.1049 10.8763 64.7753 10.4024C65.6121 9.851 66.6039 9.63249 67.6731 9.58043C68.0014 9.58966 68.2429 9.76073 68.4845 9.9318C68.97 10.1919 69.1365 10.1144 69.1527 9.53992C69.1688 8.96544 69.0231 8.30427 69.2034 7.7344C69.7536 5.69654 71.6665 4.84688 73.4443 5.88249C74.2535 6.31591 74.8915 6.99093 75.5296 7.66595C75.8486 8.00345 76.1677 8.34096 76.4046 8.67616C77.1976 9.68406 77.2474 10.8353 77.3792 11.9889C77.4336 12.976 77.5701 13.9655 77.6244 14.9526C77.6198 15.1167 77.6972 15.2832 77.6926 15.4473C77.8452 15.8623 78.0891 15.9513 78.4243 15.7143C79.6808 14.8462 80.9118 14.8808 82.2064 15.5743C83.0179 15.9256 83.3253 16.6735 83.4664 17.4988C83.5369 17.9114 83.6051 18.4062 83.5115 18.8142C83.5 19.2245 83.4041 19.7146 83.3925 20.125C83.3694 20.9457 83.1025 21.6774 82.7534 22.4067C82.2264 23.6239 81.3779 24.5857 80.933 25.8051C80.8463 25.967 80.7597 26.1288 80.5909 26.2883C80.3355 26.6097 79.998 26.9287 79.7426 27.2501C79.3161 27.813 79.316 27.813 79.8789 28.2395C80.6835 28.8371 81.2487 29.1815 80.7922 30.8113C80.6096 31.4633 80.7552 32.1244 80.3287 32.6874C80.301 33.6722 79.4619 34.3057 79.1904 35.2015C77.8357 36.6418 76.5608 38.1665 74.4201 38.3526C73.5971 38.4116 72.8562 38.4729 72.0378 38.3678C70.1526 38.2326 68.7297 39.1782 67.5438 40.459C66.3556 41.8218 65.2494 43.187 63.9814 44.4655C63.2197 45.2654 62.2188 45.8121 61.0606 46.1081C59.9024 46.4041 58.8969 47.115 57.8161 47.5774C56.7354 48.0398 55.8118 48.753 54.6513 49.131C53.7416 49.3518 52.9187 49.4108 52.0205 49.2213C50.8785 48.9428 49.807 49.0769 48.7309 49.3752C48.0674 49.6029 47.5518 50.4098 47.6952 51.153C47.6929 51.2351 47.7726 51.3194 47.7703 51.4015C48.2327 52.4822 47.8768 53.4578 47.1971 54.26C46.2031 54.5606 45.9476 54.882 45.9361 55.2923Z" fill="black"/>
<path d="M33.7778 49.6119C32.6311 49.4975 31.5688 49.3033 30.5978 48.7832C29.7887 48.3498 29.1483 47.7569 28.5946 47.0021C28.2004 46.4161 28.1346 45.8393 28.3172 45.1873C28.5044 44.3713 28.6118 43.4708 28.9632 42.6594C29.4105 41.3578 29.2833 40.0401 28.5747 38.9524C28.1805 38.3664 27.7019 37.8602 27.0523 37.5955C26.8084 37.5065 26.6512 37.2557 26.6604 36.9274C26.6696 36.5991 26.8407 36.3575 27.0892 36.2824C27.4198 36.2096 27.7504 36.1367 27.9942 36.2257C29.2981 36.5909 30.6841 36.9584 31.8966 37.6496C32.544 37.9964 32.8584 38.498 33.1705 39.0817C33.5601 39.8319 33.7035 40.5751 33.7601 41.4802C33.7463 41.9726 33.8144 42.4673 33.9647 42.9643C34.2745 43.6301 34.7601 43.8902 35.4143 43.9907C36.643 44.1074 37.5596 43.6404 38.4034 42.8428C39.587 41.644 41.0005 41.0267 42.7309 40.829C43.8024 40.6949 44.8647 40.889 45.9293 41.0011C46.5835 41.1016 46.8183 41.5189 46.4738 42.0842C46.3005 42.4078 46.127 42.7315 45.7942 42.8864C45.2925 43.2008 44.7909 43.5152 44.4488 43.9984C43.7668 44.8827 42.8479 45.4318 42.2481 46.3184C41.8216 46.8813 41.2332 47.3576 40.6449 47.8338C39.7144 48.7933 38.4765 49.0048 37.2362 49.2985C36.5751 49.4442 35.8364 49.4234 35.0908 49.6488C34.6805 49.6373 34.1858 49.7055 33.7778 49.6119ZM30.2253 38.6703C30.1363 38.9142 30.2137 39.0807 30.2935 39.1651C30.7605 40.0817 30.8149 41.0688 30.4566 42.1264C30.1827 43.1043 29.9065 44.1643 29.7123 45.2266C29.6141 45.7987 29.6823 46.2935 30.1632 46.7177C31.5283 47.8238 32.9825 48.686 34.8862 48.1646C35.3012 48.012 35.7959 47.9438 36.2062 47.9554C38.0164 47.842 39.5144 47.145 40.6228 45.6977C40.7072 45.618 40.7939 45.4561 40.8782 45.3764C41.7151 44.825 42.2352 43.854 42.99 43.3003C43.1587 43.1408 43.4119 42.9015 43.5807 42.742C43.665 42.6622 43.7494 42.5825 43.6719 42.416C43.5922 42.3316 43.4303 42.245 43.3483 42.2426C43.2662 42.2403 43.1841 42.238 43.102 42.2357C42.1946 42.3745 41.4468 42.682 40.6169 42.9872C40.4504 43.0646 40.2817 43.2241 40.1129 43.3836C39.6911 43.7824 39.2669 44.2633 38.8473 44.5801C37.5955 45.284 36.3414 46.0701 34.7982 45.4518C34.7161 45.4495 34.6341 45.4471 34.5521 45.4448C34.0643 45.2669 33.5765 45.0889 33.2598 44.6693C32.624 43.9122 32.5649 43.0892 32.4239 42.2639C32.3603 41.6051 32.3787 40.9485 32.0689 40.2827C31.766 39.3707 31.2078 38.7801 30.2253 38.6703Z" fill="black"/>
<path d="M40.6299 36.664C40.7466 35.4353 40.9407 34.373 41.6227 33.4887C42.2179 32.7663 42.6537 31.8751 43.4883 31.4057C43.9055 31.1711 44.1609 30.8497 44.4984 30.5307C45.3445 29.651 46.3478 29.0221 47.3534 28.3112C47.6886 28.0743 48.1857 27.924 48.5047 28.2615C48.8237 28.599 48.648 29.0047 48.5544 29.4127C48.4631 29.7387 48.2921 29.9803 48.2008 30.3063C47.7604 31.3616 47.5639 32.506 47.0392 33.6411C46.7768 34.2086 46.8405 34.8675 46.7399 35.5217C46.3794 36.6614 46.0188 37.8012 45.3345 38.7675C45.0768 39.1709 44.7438 39.3258 44.3289 39.4784C43.3371 39.6969 42.3569 39.5051 41.5501 38.9896C40.7455 38.392 40.4404 37.5621 40.6299 36.664ZM43.3856 37.9735C43.7139 37.9827 43.9647 37.8255 44.2202 37.5042C44.5623 37.021 44.8223 36.5355 44.9205 35.9633C45.1077 35.1473 45.3771 34.3335 45.5643 33.5175C45.7446 32.9476 45.8451 32.2933 46.0254 31.7235C46.1121 31.5616 45.9525 31.3929 45.8728 31.3085C45.711 31.2218 45.6267 31.3016 45.54 31.4634C45.2025 31.7825 44.947 32.1038 44.5297 32.3385C43.1866 33.3684 42.329 34.6585 42.1164 36.3773C42.0067 37.3598 42.4829 37.9481 43.3856 37.9735Z" fill="black"/>
<path d="M33.5134 32.6858C33.7804 31.9541 33.6394 31.1289 33.4162 30.3012C33.1908 29.5557 32.881 28.8899 32.5712 28.2241C32.3366 27.8069 32.1839 27.3919 32.2822 26.8197C32.3804 26.2476 32.7977 26.0129 33.363 26.3573C34.4958 26.9641 35.3754 27.8102 36.3394 28.5765C37.144 29.1741 37.6133 30.0086 38.2491 30.7657C38.8849 31.5228 39.0213 32.5122 38.9959 33.415C38.9705 34.3177 38.781 35.2159 38.5117 36.0296C38.0621 37.4132 36.742 37.6225 35.7641 37.3486C34.9481 37.1614 34.3852 36.7349 33.9979 35.9027C33.5332 34.904 33.4811 33.8348 33.5134 32.6858ZM37.4204 33.9456C37.6966 32.8856 37.1476 31.9667 36.5985 31.0478C36.2841 30.5462 35.8032 30.122 35.4044 29.7001C35.3246 29.6157 35.0807 29.5267 34.9963 29.6065C34.8299 29.6839 34.8253 29.8481 34.9028 30.0145C35.2877 30.9288 35.0138 31.9067 34.9884 32.8095C34.9676 33.5481 35.0266 34.3711 35.252 35.1166C35.4023 35.6136 35.8878 35.8737 36.4623 35.8899C36.9547 35.9037 37.1281 35.58 37.2194 35.2541C37.3951 34.8484 37.5707 34.4426 37.4204 33.9456Z" fill="black"/>
</svg>
