<svg width="119" height="98" viewBox="0 0 119 98" fill="none" xmlns="http://www.w3.org/2000/svg">
<path d="M83.869 69.7571C83.4648 69.2582 83.1457 68.7858 82.853 68.2284C82.6021 66.9381 82.0071 66.7527 81.0609 65.8985C80.0297 65.0179 78.972 64.2223 78.0522 63.2831C77.1325 62.3439 76.4036 61.0911 76.3492 59.7687C76.2948 58.4463 77.2814 57.075 78.5453 56.9092C79.5277 56.7489 80.6648 57.2895 81.5831 56.7362C82.4164 56.1565 82.277 54.8076 82.1432 53.7402C81.9452 52.2798 82.0023 50.8988 82.3409 49.5123C82.5471 48.5508 83.0612 47.4987 83.9907 47.5084C84.9466 47.4331 85.5055 48.6329 85.8887 49.4982C86.5758 51.4839 87.1779 53.4432 87.865 55.4289C88.1367 56.3528 88.4935 57.3032 88.3723 58.2912C88.2832 59.4756 87.6255 60.3898 87.0263 61.4154C86.4536 62.3561 85.7974 64.7627 86.968 66.9922C87.1701 67.2417 87.3248 67.9426 87.6648 68.0485C88.0633 68.2658 88.8437 67.8561 89.2896 67.622C89.7355 67.3879 90.2929 67.0952 90.7388 66.8611C90.8503 66.8026 91.6892 66.5043 91.7156 66.4193L91.5289 65.5219C93.3152 61.882 95.181 57.9871 94.2848 53.978C93.6339 50.9778 91.4167 48.5156 90.2614 45.638C88.3075 40.8333 88.9441 34.5974 84.7454 31.6112C82.6885 30.1314 79.7301 30.0493 77.5326 31.4164C75.3351 32.7835 74.1479 35.3978 74.4797 37.9256C74.8114 40.4534 76.683 42.5283 77.5192 44.9334C78.3554 47.3386 77.6629 50.7597 75.1087 51.1764C72.4694 51.5667 71.2332 47.4517 70.3385 44.9351C68.9434 41.3301 66.7792 38.6979 63.6382 36.5074C60.4971 34.317 55.5418 34.359 53.2078 37.3621C52.2478 38.6483 51.8297 40.2899 50.7526 41.3532C48.7627 43.2512 45.3417 42.5588 43.3587 40.5424C41.3756 38.5261 42.1907 35.6095 41.5454 32.8908C40.9851 30.1985 38.8794 27.6778 37.1194 25.5444C34.0563 21.6065 28.3833 20.9587 23.3806 21.4522C23.6636 22.939 25.1254 24.2336 26.4911 24.9386C27.8832 25.5587 29.3548 25.9237 30.694 26.7138C32.8623 28.1351 34.012 30.7311 34.5403 33.2269C35.0685 35.7226 35.1509 38.4525 35.7906 40.8897C36.985 45.7377 40.4201 49.978 44.8571 52.199C45.6542 52.6338 46.8708 52.9194 47.4491 52.2602C47.8629 51.8296 47.9311 51.0116 48.4885 50.719C49.0194 50.5113 49.6201 50.9781 49.9392 51.4505C52.0713 53.8863 53.1793 57.2153 55.5609 59.449C57.1398 60.9665 59.4085 61.7663 61.6018 61.6101C63.7952 61.454 65.9718 60.4533 67.3458 58.7365C67.924 58.0773 68.5552 57.2482 69.3732 57.3164C70.1062 57.3582 70.686 58.1915 70.7292 58.9509C70.7724 59.7104 70.5342 60.4754 70.2959 61.2405C70.0576 62.0055 69.9044 62.797 70.2291 63.5509C70.7879 64.7507 72.371 65.0572 73.5666 65.7093C75.6444 66.8227 76.6506 69.2808 77.5397 71.5159C77.9968 71.8448 78.603 72.593 79.2189 72.4119C79.5269 72.3213 79.8613 72.1457 80.0843 72.0286C80.8061 71.5074 81.422 71.3262 82.1759 71.0015C82.8183 70.7353 83.5136 70.2992 84.0125 69.895C84.0125 69.895 83.954 69.7835 83.869 69.7571ZM61.5402 52.8254C60.7319 51.8277 60.9269 50.3032 60.4796 49.0449C59.9472 47.7601 58.7195 46.9115 57.5238 46.2594C56.8118 45.8512 55.9296 45.3899 55.8014 44.604C55.6732 43.8181 56.1664 43.1325 56.8353 42.7813C57.8651 42.1695 59.2461 42.2266 60.4361 42.5972C61.5997 43.0528 62.5724 43.822 63.4072 44.7347C65.0766 46.5601 67.7482 52.0546 64.1433 53.4497C63.2779 53.8329 62.1464 53.5737 61.5402 52.8254Z" fill="#FBBC93"/>
<path d="M93.4345 30.9593C92.7851 29.4515 91.5253 28.4064 90.4035 27.2178C89.2817 26.0292 88.3508 24.527 88.5723 22.9175C90.6556 24.3123 92.739 25.7072 94.9073 27.1285C96.1351 27.9771 97.5063 28.9636 97.8742 30.4769C98.3592 32.2132 97.2668 33.9245 96.3973 35.5187C95.4428 37.0864 94.6639 38.9886 95.4834 40.5493C94.6374 39.0736 93.7915 37.5979 93.8166 36.0205C93.751 34.135 94.1425 32.5785 93.4345 30.9593Z" fill="#FBBC93"/>
<path d="M59.9908 82.6486C59.6117 80.5723 58.972 78.1351 56.9319 77.4997C55.8268 77.1556 54.7065 77.4594 53.607 77.3967C51.8595 77.3188 50.3183 76.2793 49.4724 74.8036C48.8871 73.6888 48.6626 72.3134 47.9658 71.2572C46.8064 69.5906 44.4848 68.9608 42.5841 69.6744C40.6833 70.3879 39.2244 72.0783 38.6155 74.0334C37.562 72.0268 37.6553 69.6314 38.4606 67.6442C39.266 65.657 40.2414 63.7228 42.6368 63.8161C44.0178 63.8732 45.3514 64.3817 46.7059 64.5238C48.0604 64.6659 49.3772 64.33 50.7261 64.1906C52.075 64.0512 53.4824 64.0233 54.731 64.5054C55.9532 65.0725 56.9635 66.3196 56.7364 67.6476C56.6891 68.0991 56.4452 68.5827 56.4829 69.0607C56.5443 72.157 62.142 71.8489 64.0386 72.3463C65.4251 72.6848 66.7378 73.5599 67.5782 74.7541C68.0408 75.3644 68.392 76.0333 68.5467 76.7343C68.7279 77.3502 68.6011 78.0567 68.8938 78.6141C67.7316 79.6509 66.341 80.5233 65.1203 81.4486C64.287 82.0283 63.5387 82.6345 62.8225 83.4372C62.2442 84.0964 61.8359 84.8085 61.1141 85.3297C61.0026 85.3882 60.1637 85.6864 60.0523 85.745C59.2078 85.7617 60.1135 83.153 59.9908 82.6486Z" fill="#FBBC93"/>
<path d="M16.2625 31.731C13.7556 31.6962 11.827 31.0023 11.827 31.0023C11.827 31.0023 13.4853 32.2648 15.0056 33.6708C16.526 35.0768 17.3398 36.356 17.5545 38.6608C18.2275 37.0987 19.3214 36.8799 20.7177 36.289C22.114 35.6981 23.0114 35.5113 24.8703 35.5307C22.5961 34.4495 20.3957 32.8317 20.0848 29.9374C19.8466 30.7024 18.4029 31.7448 16.2625 31.731Z" fill="#70BEE6"/>
<path d="M100.643 43.742C100.643 43.742 101.059 44.8038 102.415 46.4383C103.771 48.0729 104.303 49.3576 104.21 51.7531C105.111 50.3553 108.1 49.1415 111.421 50.4554C109.687 48.2371 107.933 46.3851 108.1 43.4532C105.303 45.846 100.643 43.742 100.643 43.742Z" fill="#70BEE6"/>
<path d="M17.5018 17.5693C17.7191 17.1707 17.7665 16.7192 18.2389 16.4001C18.8228 16.0224 19.3007 15.9848 19.9278 16.3666C20.3849 16.6954 20.7946 17.4758 20.6623 17.9008C20.371 18.8358 18.9804 19.7082 18.0021 18.6576C17.8 18.4081 17.5979 18.1587 17.4809 17.9357C17.4488 17.7393 17.4753 17.6543 17.5018 17.5693Z" fill="black"/>
<path d="M39.4582 76.7204C39.7453 76.9963 40.3932 77.0116 40.4044 77.5746C40.4156 78.1376 40.2567 78.6476 39.5293 78.8873C39.2214 78.9779 39.004 79.3765 38.6375 79.3556C37.8195 79.2873 37.5269 78.73 37.2607 78.0876C37.0266 77.6416 37.2439 77.2431 37.5198 76.956C38.1302 76.4934 38.7196 76.3972 39.4582 76.7204Z" fill="black"/>
<path d="M78.9302 38.0056C78.2654 37.1458 78.0578 36.6149 78.8005 35.7272C78.9119 35.6687 78.997 35.6951 79.0499 35.5251C79.2729 35.4081 79.4958 35.291 79.6923 35.2589C79.7773 35.2854 79.8358 35.3969 79.9738 35.2534C80.1438 35.3063 80.2873 35.4442 80.4573 35.4972C81.2544 35.9319 81.43 36.2664 81.2182 36.9464C81.0065 37.6264 80.3961 38.0891 79.6631 38.0473C79.4667 38.0794 79.2437 38.1965 79.1002 38.0585C79.1852 38.085 79.0152 38.032 78.9302 38.0056Z" fill="black"/>
<path d="M45.8936 43.4765C45.665 43.3121 45.325 43.2062 45.0965 43.0418C44.5279 42.7714 43.9593 42.5011 43.5023 42.1723C43.0452 41.8434 42.5031 41.4881 42.322 40.8722C42.2314 40.5642 42.0293 40.3148 41.9387 40.0069C41.7896 39.5874 41.5819 39.0565 41.5443 38.5785C41.4481 37.9891 41.3519 37.3996 41.2558 36.8102C41.2237 36.6137 41.3616 36.4701 41.3031 36.3587C41.2655 35.8807 41.1163 35.4613 41.0787 34.9833C41.0146 34.5903 41.0619 34.1388 40.9978 33.7459C40.9922 33.4644 40.9281 33.0714 40.7261 32.822C40.3484 32.2381 40.3316 31.3937 39.731 30.9269C39.5025 30.7624 39.4648 30.2845 39.2892 29.95L39.2307 29.8386C38.5186 29.4303 38.4754 28.6708 37.9862 28.1455C37.7256 27.7846 37.4386 27.5087 37.093 27.1213C36.8324 26.7604 36.4868 26.373 36.2262 26.0121C36.1412 25.9856 36.1677 25.9006 36.0826 25.8741C35.2535 25.2429 34.5358 24.5532 33.6802 24.0069C33.1381 23.6516 32.6016 23.5778 32.0915 23.4189C31.0715 23.1013 30.0835 22.9801 29.0105 22.8324C28.304 22.7056 27.5181 22.8339 26.7851 22.7921C26.6151 22.7391 26.4451 22.6862 26.3336 22.7447C26.2221 22.8033 26.1106 22.8618 25.9991 22.9203C26.0577 23.0318 26.1162 23.1433 26.1747 23.2547C27.121 24.1089 28.3696 24.591 29.5332 25.0467C30.1867 25.3435 30.8403 25.6402 31.4673 26.022C31.9509 26.2659 32.4345 26.5097 32.8065 26.8121C33.0351 26.9765 33.2107 27.311 33.4128 27.5604L33.4713 27.6719C33.8169 28.0593 34.1625 28.4466 34.5081 28.834C34.5666 28.9455 34.7102 29.0834 34.7687 29.1949C34.7799 29.7579 35.1255 30.1453 35.3596 30.5912C35.4767 30.8142 35.4822 31.0956 35.5728 31.4036C35.754 32.0195 35.8502 32.609 36.0578 33.1399C36.3881 34.1752 36.214 35.3332 36.4593 36.3421C36.646 37.2395 36.7743 38.0255 36.961 38.9229C37.1158 39.6238 37.467 40.2927 37.4252 41.0257C37.3722 41.1957 37.6007 41.3601 37.6328 41.5566C37.7819 41.976 37.8726 42.284 38.0217 42.7034C38.1387 42.9264 38.2558 43.1493 38.3464 43.4573C38.522 43.7917 38.6125 44.0997 38.7881 44.4341C38.9052 44.6571 38.9958 44.9651 39.1394 45.103C39.7191 45.9363 40.2458 46.9396 41.075 47.5708C41.7341 48.1491 42.2554 48.8709 42.941 49.3642C43.5151 49.916 44.2007 50.4093 44.9128 50.8175C45.3699 51.1464 45.9914 51.2467 46.5865 51.432C47.0115 51.5644 47.2609 51.3623 47.5047 50.8787C47.8015 50.2252 48.3589 49.9325 49.0334 49.8628C49.3149 49.8572 49.5964 49.8517 49.8779 49.8461C50.6373 49.8028 51.0414 50.3017 51.4456 50.8006C52.1368 51.5753 52.7165 52.4086 53.2962 53.2419C53.6154 53.7143 53.8495 54.1602 54.0836 54.6061C54.4613 55.19 54.7275 55.8324 55.1051 56.4162C55.4243 56.8886 55.8284 57.3875 56.259 57.8013C57.0617 58.5176 57.8644 59.2338 58.6671 59.95C58.8956 60.1144 59.2356 60.2203 59.5171 60.2148C60.0271 60.3736 60.4786 60.421 61.0151 60.4948C61.3816 60.5157 61.7481 60.5366 62.1411 60.4724C63.2671 60.4501 64.3289 60.0348 65.4172 59.5345C65.7252 59.4439 65.916 59.1304 66.192 58.8433C66.4679 58.5562 66.7438 58.2692 67.0197 57.9821C67.6565 57.4344 68.1818 56.9453 68.8772 56.5091C69.461 56.1314 69.939 56.0938 70.4225 56.3376C70.9061 56.5815 71.5597 56.8783 71.9053 57.2656C72.2509 57.653 72.4321 58.2689 72.4432 58.8319C72.4809 59.3099 72.3806 59.9314 72.3067 60.4679C72.2064 61.0894 71.9361 61.6579 71.9208 62.3059C71.9264 62.5874 71.879 63.0389 72.2776 63.2563C72.7611 63.5001 73.2182 63.829 73.6753 64.1578C73.9038 64.3222 74.2703 64.3431 74.4988 64.5076C75.2374 64.8308 75.8381 65.2976 76.3007 65.908C76.6463 66.2953 77.0184 66.5977 77.3375 67.0701C77.7152 67.654 78.1193 68.1528 78.274 68.8538C78.3061 69.0502 78.5081 69.2997 78.6517 69.4376C78.9123 69.7985 79.1199 70.3295 79.1576 70.8074C79.1896 71.0039 79.1367 71.1739 79.1688 71.3704C79.2008 71.5669 79.4029 71.8163 79.3235 72.0713C79.2705 72.2413 79.1325 72.3849 78.9946 72.5284C78.7452 72.7305 78.3522 72.7946 78.0122 72.6887C77.5286 72.4449 77.151 71.861 76.9169 71.4151C76.5921 70.6612 76.1824 69.8809 75.8312 69.212C75.5971 68.7661 75.363 68.3202 75.1024 67.9593C74.3791 66.988 73.327 66.4738 72.2219 66.1297C71.3719 65.865 70.6013 65.3452 70.1065 64.5384C69.6703 63.8431 69.5156 63.1421 69.6689 62.3506C69.8486 61.4741 70.0548 60.5126 70.2345 59.6361C70.314 59.381 70.3084 59.0995 70.0534 59.0201C69.7398 58.8292 69.5433 58.8613 69.3524 59.1748C69.0236 59.6319 68.6947 60.089 68.2809 60.5196C68.1429 60.6631 67.8614 60.6687 67.7235 60.8122C67.3891 60.9878 67.1396 61.1899 66.8902 61.392C66.4763 61.8226 66.0039 62.1417 65.4145 62.2379C64.7136 62.3926 63.9862 62.6323 63.2002 62.7605C62.6108 62.8567 61.9363 62.9264 61.2619 62.9961C61.1504 63.0546 61.0069 62.9167 60.8369 62.8637C59.9603 62.684 59.1103 62.4193 58.2602 62.1546C57.9202 62.0487 57.6067 61.8578 57.3781 61.6934C56.9796 61.476 56.5281 61.4286 56.379 61.0092C56.3205 60.8977 56.1505 60.8448 56.0069 60.7068C55.0133 60.3041 54.4601 59.3858 53.9918 58.494C53.8162 58.1596 53.5292 57.8837 53.2421 57.6078C53.008 57.1619 52.6624 56.7745 52.4282 56.3286C52.3697 56.2171 52.3962 56.1321 52.3112 56.1056C51.9126 55.8882 51.875 55.4103 51.6994 55.0758C51.1726 54.0725 50.7308 53.0957 49.7052 52.4965C49.3916 52.3056 49.0572 52.4812 48.9778 52.7362C48.7339 53.2198 48.373 53.4804 47.9536 53.6295C47.4491 53.7522 46.9182 53.9598 46.3232 53.7745C45.8982 53.6421 45.4731 53.5097 45.0746 53.2924C44.336 52.9691 43.6239 52.5608 42.8853 52.2376C42.8003 52.2111 42.8003 52.2111 42.7153 52.1846C42.4812 51.7387 41.9976 51.4949 41.6256 51.1925C41.1099 50.7522 40.4829 50.3704 39.9938 49.8451C39.6482 49.4577 39.414 49.0118 39.0684 48.6244C38.2657 47.9081 37.686 47.0748 37.1327 46.1565C36.7815 45.4877 36.4039 44.9038 36.0792 44.15C35.7224 43.1996 35.2806 42.2228 35.0089 41.2989C34.7956 40.4865 34.6939 39.6155 34.5656 38.8296C34.4903 37.8737 34.415 36.9177 34.2547 35.9353C34.1586 35.3459 33.9774 34.7299 33.7962 34.114C33.6415 33.4131 33.4603 32.7972 33.1942 32.1548C33.045 31.7354 32.9809 31.3424 32.8318 30.9229C32.5977 30.477 32.3635 30.0311 32.0179 29.6437C31.6138 29.1449 31.3212 28.5875 30.917 28.0886C30.8585 27.9772 30.715 27.8392 30.545 27.7862C29.4078 27.2456 28.1857 26.6785 27.0221 26.2229C26.3685 25.9261 25.6035 25.6878 24.9499 25.391C24.8649 25.3646 24.7799 25.3381 24.7799 25.3381C24.2323 24.7013 23.6846 24.0645 23.1634 23.3427C22.7007 22.7323 22.546 22.0314 22.7843 21.2663C22.9431 20.7563 23.304 20.4957 23.8934 20.3995C24.7379 20.3828 25.6088 20.281 26.5648 20.2057C26.7612 20.1737 27.0163 20.2531 27.1863 20.306C27.8928 20.4328 28.6787 20.3046 29.4438 20.5428C30.0388 20.7282 30.7983 20.6849 31.4198 20.7853C31.5048 20.8117 31.5898 20.8382 31.6748 20.8647C32.0998 20.997 32.4984 21.2144 32.9234 21.3468C33.7999 21.5265 34.5705 22.0462 35.3676 22.481C36.0797 22.8893 36.8239 23.494 37.3716 24.1308C37.9457 24.6826 38.4669 25.4045 39.0146 26.0413C39.4773 26.6516 40.0514 27.2034 40.4876 27.8987C40.8652 28.4826 41.2429 29.0665 41.6206 29.6503C41.8547 30.0963 42.0623 30.6272 42.27 31.1581C42.6797 31.9384 42.755 32.8944 42.8567 33.7653C42.9906 34.8327 43.1244 35.9001 43.2582 36.9675C43.3808 37.472 43.3921 38.035 43.5147 38.5394C43.6429 39.3254 44.0735 39.7392 44.6742 40.206C45.1898 40.6463 45.8433 40.9431 46.4969 41.2399C46.8369 41.3458 47.3149 41.3082 47.6814 41.3291C48.1593 41.2914 48.6959 41.3653 49.2003 41.2426C49.8748 41.1729 50.2565 40.5458 50.6704 40.1152C51.1372 39.5146 51.5455 38.8025 52.0387 38.1169C52.0652 38.0319 52.0917 37.9469 52.1182 37.8618C52.1391 37.4954 52.3034 37.2668 52.5529 37.0647C53.1897 36.5171 53.5659 35.6085 54.4313 35.2252C55.769 34.5229 57.0858 34.187 58.5198 34.0741C59.2792 34.0308 60.0972 34.0991 60.8302 34.1409C61.4517 34.2412 61.9938 34.5965 62.5888 34.7818C62.6738 34.8083 62.8174 34.9462 62.9288 34.8877C63.4068 34.8501 63.8903 35.0939 64.2624 35.3963C64.6345 35.6986 64.9801 36.086 65.3522 36.3884C65.4107 36.4999 65.5807 36.5528 65.6657 36.5793C66.2928 36.9611 66.9199 37.3429 67.2976 37.9268C67.4147 38.1497 67.6432 38.3141 67.8982 38.3936C68.4668 38.6639 68.8974 39.0777 69.0786 39.6937C69.0521 39.7787 69.1371 39.8051 69.2221 39.8316C69.7642 40.1869 70.0303 40.8293 70.323 41.3867C70.6742 42.0556 71.0254 42.7244 71.3501 43.4783C71.4672 43.7013 71.4992 43.8978 71.5313 44.0942C71.9145 44.9596 72.4093 45.7664 72.7925 46.6318C72.851 46.7432 72.9096 46.8547 72.8831 46.9397C73.1019 48.0336 73.7081 48.7819 74.3993 49.5567C74.8035 50.0555 75.3929 49.9593 75.8974 49.8367C76.0938 49.8046 76.1733 49.5496 76.3377 49.3211C76.5286 49.0076 76.661 48.5825 76.8519 48.269C76.9313 48.0139 77.0957 47.7854 77.0636 47.5889C77.0525 47.026 76.9563 46.4365 76.8601 45.8471C76.7375 45.3426 76.6148 44.8382 76.5187 44.2487C76.5451 44.1637 76.4866 44.0522 76.4016 44.0258C76.0239 43.4419 75.6463 42.858 75.2951 42.1892C75.0345 41.8283 74.8854 41.4088 74.7362 40.9894C74.5021 40.5435 74.2945 40.0125 74.0868 39.4816C73.8792 38.9507 73.698 38.3348 73.6868 37.7718C73.5906 37.1824 73.6909 36.5609 73.7912 35.9394C73.8651 35.4029 73.8804 34.7549 74.1242 34.2713C74.6704 33.4157 74.7916 32.4277 75.6514 31.763C76.0388 31.4174 76.3676 30.9603 76.755 30.6147C77.1159 30.3541 77.5618 30.12 77.9813 29.9708C78.3157 29.7952 78.7352 29.6461 79.1546 29.497C79.574 29.3479 79.882 29.2573 80.275 29.1932C80.7529 29.1555 81.2309 29.1179 81.6824 29.1652C82.6439 29.3714 83.6319 29.4926 84.567 29.7838C85.7306 30.2395 86.6768 31.0937 87.4586 32.1764C87.6606 32.4258 87.9477 32.7017 88.1233 33.0361C88.4424 33.5085 88.7616 33.9809 88.8842 34.4854C89.0389 35.1863 89.4431 35.6851 89.7093 36.3275C89.7678 36.439 89.6563 36.4975 89.7148 36.609C89.7789 37.002 89.8695 37.31 89.9337 37.7029C89.9072 37.7879 89.9922 37.8144 90.0507 37.9259C90.211 38.9083 90.3713 39.8907 90.5316 40.8731C90.6543 41.3776 90.8619 41.9085 90.9846 42.4129C91.1016 42.6359 91.1072 42.9174 91.1128 43.1989C91.156 43.9583 91.6187 44.5687 91.9699 45.2375C92.0869 45.4605 92.1775 45.7684 92.2946 45.9914C92.5928 46.8303 93.114 47.5521 93.5502 48.2474C93.9864 48.9428 94.2847 49.7816 94.6094 50.5355C94.5829 50.6205 94.6414 50.732 94.6414 50.732C95.4706 51.3632 95.4608 52.2927 95.7591 53.1316C95.9988 53.859 96.0156 54.7034 96.1438 55.4894C96.2079 55.8823 96.102 56.2223 96.0811 56.5888C96.0073 57.1253 96.0185 57.6883 95.9446 58.2248C95.9238 58.5913 95.7064 58.9899 95.6855 59.3564C95.3734 60.6579 94.9178 61.8215 94.2657 63.0171C94.2392 63.1021 94.2127 63.1872 94.1862 63.2722C94.1765 64.2016 93.5718 64.9458 93.1635 65.6579C92.9726 65.9714 92.7287 66.455 92.3037 66.3226C91.8787 66.1903 91.2042 66.26 91.0231 65.644C90.991 65.4476 90.959 65.2511 91.0384 64.9961C91.3881 64.1725 91.6528 63.3224 92.0026 62.4989C92.2729 61.9303 92.6547 61.3032 92.925 60.7346C93.0309 60.3946 93.0518 60.0281 93.1842 59.6031C93.343 59.0931 93.5869 58.6095 93.6342 58.158C93.761 57.4515 93.6913 56.7771 93.8181 56.0706C93.8125 55.7891 93.9769 55.5605 93.9449 55.364C93.8807 54.9711 93.7316 54.5516 93.5825 54.1322C93.4013 53.5163 93.1937 52.9854 92.986 52.4544C92.7784 51.9235 92.5122 51.2811 92.2195 50.7237C91.9269 50.1663 91.6342 49.609 91.3151 49.1366C91.198 48.9136 91.0809 48.6907 90.8524 48.5262C90.3633 48.0009 90.2936 47.3265 90.0274 46.6841C89.8518 46.3496 89.7027 45.9302 89.5271 45.5958C89.41 45.3728 89.4044 45.0913 89.3138 44.7833C89.2553 44.6719 89.2818 44.5869 89.2232 44.4754C89.1647 44.3639 89.1062 44.2524 89.0477 44.1409C88.8665 43.525 88.7703 42.9356 88.6741 42.3461C88.6156 42.2346 88.6421 42.1496 88.5835 42.0382C88.2059 41.4543 88.0512 40.7534 88.0929 40.0204C88.0818 39.4574 87.7891 38.9 87.6929 38.3106C87.7194 38.2256 87.5494 38.1726 87.5759 38.0876C87.7082 37.6626 87.3626 37.2752 87.325 36.7972C87.1117 35.9848 86.787 35.231 86.3773 34.4506C86.0582 33.9782 85.8241 33.5323 85.3935 33.1185C84.8193 32.5667 84.2981 31.8448 83.3951 31.7501C82.6621 31.7083 81.9821 31.4966 81.2756 31.3698C81.0206 31.2904 80.7711 31.4924 80.4897 31.498C78.9707 31.5845 77.9465 32.4777 76.9544 33.5675C76.79 33.796 76.567 33.9131 76.4026 34.1417C75.9679 34.9388 75.9581 35.8682 75.9749 36.7127C75.9861 37.2757 76.1087 37.7801 76.1463 38.2581C76.2049 38.3695 76.2369 38.566 76.2955 38.6775C76.5617 39.3199 76.9129 39.9888 77.179 40.6312L77.2376 40.7426C78.0082 41.2624 78.1099 42.1333 78.4347 42.8872C78.7914 43.8376 79.0367 44.8464 79.2235 45.7438C79.3462 46.2483 79.3838 46.7263 79.395 47.2892C79.427 47.4857 79.2626 47.7143 79.1832 47.9693C79.0243 48.4793 78.8655 48.9893 78.7066 49.4994C78.4099 50.1529 78.0545 50.695 77.3857 51.0462C77.0512 51.2218 76.8018 51.4239 76.3824 51.573C76.0479 51.7486 75.6285 51.8977 75.2035 51.7653C75.1185 51.7389 75.0335 51.7124 74.922 51.7709C74.2211 51.9256 73.541 51.7138 72.9404 51.247C72.5098 50.8332 72.0792 50.4193 71.7601 49.9469C71.3559 49.4481 71.0897 48.8057 70.8821 48.2748C70.4668 47.2129 70.0515 46.1511 69.6097 45.1743C69.4341 44.8398 69.2585 44.5054 69.1094 44.086C68.9923 43.863 68.8167 43.5286 68.6997 43.3056C68.2579 42.3288 67.8426 41.2669 67.0399 40.5507C66.1787 39.723 65.3439 38.8103 64.4563 38.0676C63.425 37.187 62.1179 36.5934 60.8693 36.1113C59.7907 35.6821 58.7818 35.9274 57.6559 35.9497C57.3744 35.9553 57.0985 36.2424 56.8755 36.3595C56.5675 36.4501 56.2331 36.6256 55.9251 36.7162C55.7287 36.7483 55.5057 36.8653 55.3677 37.0089C54.7895 37.668 54.2377 38.2422 53.8294 38.9543C53.4476 39.5814 53.1243 40.3199 52.9126 41C52.7537 41.51 52.3928 41.7706 52.0319 42.0312C51.671 42.2918 51.2836 42.6374 50.8377 42.8716C50.1953 43.1377 49.5585 43.6854 48.7084 43.4207C48.4534 43.3412 48.2305 43.4583 47.9755 43.3789C47.2216 43.7036 46.6001 43.6033 45.8936 43.4765C45.8671 43.5615 45.8671 43.5615 45.8936 43.4765Z" fill="black"/>
<path d="M39.3082 70.6127C39.4197 70.5542 39.6426 70.4372 39.6691 70.3521C40.2739 69.608 41.0863 69.3948 41.9252 69.0965C42.0366 69.038 42.1216 69.0645 42.1481 68.9794C42.6469 68.5753 43.1514 68.4527 43.6879 68.5265C44.1394 68.5739 44.6174 68.5362 44.9839 68.5571C45.6583 68.4874 46.2004 68.8427 46.7954 69.028C47.534 69.3513 47.9381 69.8502 48.4537 70.2905C48.5123 70.402 48.5708 70.5135 48.7144 70.6514C49.0335 71.1238 49.3526 71.5962 49.5602 72.1271C49.97 72.9074 50.2682 73.7463 50.6779 74.5267C50.8535 74.8611 51.1991 75.2485 51.5127 75.4394C51.9698 75.7682 52.4533 76.0121 52.9369 76.2559C53.1919 76.3353 53.3884 76.3033 53.6699 76.2977C54.0629 76.2336 54.5994 76.3074 55.0508 76.3548C55.6138 76.3436 56.2618 76.3589 56.7983 76.4327C57.0798 76.4272 57.3933 76.6181 57.6483 76.6975C58.0469 76.9148 58.4454 77.1322 58.7325 77.4081C59.0461 77.599 59.3331 77.8749 59.5352 78.1243C59.8223 78.4003 59.9979 78.7347 60.2849 79.0106C60.402 79.2335 60.5191 79.4565 60.5511 79.653C60.4829 80.471 60.8341 81.1399 60.9623 81.9258C61.1226 82.9082 60.8105 84.2097 60.3493 85.0918C60.2113 85.2354 60.0469 85.4639 59.8769 85.411C59.7069 85.358 59.5633 85.2201 59.5313 85.0236C59.233 84.1847 58.8498 83.3194 58.7745 82.3634C58.6784 81.774 58.5557 81.2695 58.433 80.7651C58.2839 80.3456 58.0498 79.8997 57.7892 79.5388C57.5551 79.0929 57.098 78.764 56.535 78.7752C56.45 78.7487 56.365 78.7223 56.195 78.6693C56.025 78.6164 55.77 78.537 55.6585 78.5955C55.1805 78.6331 54.6761 78.7558 54.1716 78.8784C53.9751 78.9105 53.7201 78.8311 53.5501 78.7781C53.0401 78.6193 52.6151 78.4869 52.1051 78.3281C51.595 78.1692 51 77.9839 50.5429 77.6551C49.6873 77.1089 48.9111 76.3076 48.4693 75.3308C48.4107 75.2193 48.4902 74.9643 48.3202 74.9114C47.8575 74.301 47.9257 73.483 47.463 72.8727C47.0589 72.3738 46.9307 71.5879 46.1921 71.2647C45.6236 70.9943 45.0815 70.639 44.3805 70.7937C43.9876 70.8578 43.5096 70.8955 43.0317 70.9331C42.8352 70.9652 42.6972 71.1087 42.4743 71.2258C42.1398 71.4014 41.8054 71.577 41.556 71.779C41.1686 72.1246 40.7547 72.5552 40.5109 73.0388C40.1291 73.6659 39.7208 74.378 39.339 75.0051C39.201 75.1486 38.8931 75.2392 38.6381 75.1598C38.3566 75.1654 38.128 75.0009 37.9845 74.863C37.756 74.6985 37.6125 74.5606 37.5484 74.1677C37.5107 73.6897 37.2766 73.2438 37.1274 72.8243C36.7971 71.789 36.6898 70.6365 36.8374 69.5635C36.8583 69.197 37.0757 68.7985 37.2081 68.3735C37.314 68.0334 37.4463 67.6084 37.5522 67.2684C37.7375 66.6734 37.9229 66.0783 38.2782 65.5363C38.4691 65.2227 38.745 64.9356 39.0209 64.6486C39.2968 64.3615 39.5727 64.0744 39.8222 63.8723C40.321 63.4682 40.8784 63.1756 41.4943 62.9944C41.8023 62.9038 42.1953 62.8397 42.4767 62.8341C42.6732 62.802 42.9547 62.7964 43.2362 62.7909C44.1127 62.9706 44.9892 63.1503 45.7807 63.3036C46.2322 63.3509 46.7102 63.3133 47.2202 63.4721C48.1818 63.6783 49.1906 63.433 50.1731 63.2727C50.566 63.2086 50.9005 63.033 51.267 63.0539C51.6599 62.9898 51.9999 63.0957 52.3664 63.1166C52.5364 63.1695 52.7329 63.1375 52.9294 63.1054C53.6889 63.0622 54.4539 63.3004 55.1925 63.6237C56.016 63.9734 56.7281 64.3817 57.2493 65.1035C57.5099 65.4644 57.712 65.7139 57.7497 66.1918C57.7553 66.4733 57.8723 66.6963 57.9894 66.9193C58.0856 67.5087 57.9852 68.1302 57.9699 68.7782C57.949 69.1447 57.9867 69.6226 58.1623 69.9571C58.2793 70.18 58.5079 70.3445 58.7629 70.4239C59.2465 70.6677 59.645 70.8851 60.1815 70.9589C61.281 71.0216 62.354 71.1693 63.427 71.3169C63.8785 71.3643 64.245 71.3852 64.6115 71.4061C64.8665 71.4855 65.148 71.4799 65.2915 71.6179C65.9186 71.9997 66.6572 72.3229 67.1728 72.7632C67.5449 73.0656 67.864 73.538 68.2096 73.9254C68.2681 74.0369 68.3267 74.1483 68.4117 74.1748C68.8158 74.6737 69.2199 75.1725 69.5126 75.7299C69.6882 76.0644 69.7258 76.5423 69.7635 77.0203C69.7691 77.3018 69.7746 77.5833 69.6952 77.8383C69.6743 78.2048 69.3134 78.4654 69.0055 78.556C68.6975 78.6466 68.416 78.6521 68.2404 78.3177C68.0063 77.8718 67.6607 77.4844 67.6495 76.9214C67.6439 76.64 67.4419 76.3905 67.2663 76.0561C67.0642 75.8066 66.9471 75.5837 66.7451 75.3343C65.5647 74.0342 64.252 73.1591 62.4516 73.2511C62.0586 73.3153 61.6601 73.0979 61.2351 72.9655C60.8686 72.9446 60.5021 72.9238 60.2471 72.8443C59.8806 72.8235 59.5141 72.8025 59.0891 72.6702C58.579 72.5113 58.154 72.379 57.6704 72.1351C56.8469 71.7854 56.1877 71.2071 55.863 70.4533C55.5383 69.6994 55.24 68.8605 55.6748 68.0634C55.9716 67.4098 55.8169 66.7089 55.4392 66.1251C55.1201 65.6527 54.4665 65.3559 53.7335 65.3141C53.452 65.3197 53.1706 65.3253 52.9156 65.2458C52.0655 64.9811 51.1681 65.1679 50.3557 65.3811C49.5433 65.5943 48.7518 65.4411 47.9394 65.6543C47.5464 65.7185 47.1214 65.5861 46.7549 65.5652C46.6699 65.5387 46.4734 65.5708 46.3884 65.5443C46.1334 65.4649 45.9369 65.4969 45.6819 65.4175C45.2304 65.3702 44.8904 65.2642 44.4389 65.2169C44.0724 65.196 43.7059 65.1751 43.3923 64.9842C42.6537 64.6609 42.0699 65.0386 41.5125 65.3313C40.6207 65.7995 40.526 66.7025 40.0062 67.4732C39.7888 67.8717 39.5715 68.2703 39.4391 68.6953C39.2802 69.2053 39.3764 69.7948 39.3026 70.3313C39.1647 70.4748 39.2232 70.5863 39.3082 70.6127Z" fill="black"/>
<path d="M89.6848 59.1656C89.6054 59.4206 89.611 59.7021 89.5316 59.9571L89.5051 60.0421C89.0063 60.4462 89.161 61.1472 88.7471 61.5778C88.3068 62.0934 87.925 62.7205 87.9097 63.3684C87.8623 63.8199 87.8735 64.3829 87.9111 64.8609C87.9488 65.3389 88.1564 65.8698 88.3056 66.2892C88.4547 66.7087 88.4338 67.0752 88.1314 67.4472C87.8555 67.7343 87.4946 67.9949 87.096 67.7775C86.7825 67.5866 86.4954 67.3107 86.2348 66.9498C85.7722 66.3395 85.5325 65.6121 85.5157 64.7676C85.5366 64.4011 85.4725 64.0082 85.4669 63.7267C85.4236 62.9672 85.7469 62.2287 86.0437 61.5751C86.367 60.8365 86.6902 60.0979 87.0135 59.3594C87.2574 58.8758 87.3897 58.4508 87.5486 57.9408C87.575 57.8558 87.6015 57.7707 87.543 57.6593C87.2391 56.5389 87.1318 55.3865 86.5465 54.2717C86.3709 53.9373 86.3653 53.6558 86.2747 53.3478C86.0671 52.8169 85.8594 52.286 85.6518 51.7551C85.5026 51.3356 85.4385 50.9427 85.2894 50.5232L85.3159 50.4382C85.1082 49.9073 84.8156 49.3499 84.6079 48.819C84.4908 48.596 84.0979 48.6602 83.907 48.9737C83.4778 50.0523 83.3887 51.2368 83.5225 52.3042C83.6131 52.6122 83.5072 52.9522 83.5713 53.3451C83.5448 53.4301 83.6034 53.5416 83.5504 53.7116C83.7957 54.7205 83.5895 55.6821 83.0433 56.5377C82.6085 57.3348 81.9397 57.686 81.1538 57.8142C80.8458 57.9048 80.4208 57.7724 80.0808 57.6665C79.0342 57.4339 77.6435 58.3062 77.7188 59.2622C77.815 59.8516 78.0227 60.3826 78.2889 61.025C78.4644 61.3594 78.6986 61.8053 78.9856 62.0812C79.4748 62.6065 80.0489 63.1583 80.6495 63.6251C81.2502 64.0919 81.7128 64.7023 82.3399 65.0841C82.712 65.3864 83.0841 65.6888 83.4297 66.0762C83.8073 66.6601 83.962 67.361 84.1432 67.9769C84.2923 68.3964 84.6171 69.1502 84.3997 69.5488C84.2353 69.7773 83.9273 69.8679 83.6458 69.8735C83.5343 69.932 83.3643 69.8791 83.2793 69.8526C83.0243 69.7732 82.8808 69.6352 82.6787 69.3858C82.4766 69.1364 82.1575 68.664 82.0669 68.356C81.8802 67.4586 81.083 67.0239 80.3974 66.5306C79.9403 66.2018 79.5097 65.7879 79.0791 65.374C78.8506 65.2096 78.537 65.0187 78.335 64.7693C78.0479 64.4934 77.8723 64.1589 77.6702 63.9095C77.4682 63.6601 77.2396 63.4957 77.0376 63.2462C76.692 62.8589 76.3464 62.4715 76.1122 62.0256C75.7875 61.2717 75.5478 60.5443 75.4196 59.7584C75.3234 59.1689 75.3972 58.6324 75.7525 58.0903C75.779 58.0053 75.917 57.8618 75.8849 57.6653C75.9587 57.1288 76.3461 56.7832 76.7335 56.4376C77.0944 56.177 77.2268 55.752 77.7312 55.6293C77.9277 55.5973 78.0392 55.5387 78.2357 55.5067C78.8251 55.4105 79.3881 55.3993 79.9511 55.3882C80.0626 55.3296 80.2326 55.3826 80.4026 55.4355C80.9976 55.6208 81.6079 55.1582 81.4268 54.5422C81.155 53.6184 81.2762 52.6304 81.1159 51.648C80.9556 50.6655 81.4754 49.8949 81.5701 48.9919C81.6969 48.2854 81.9351 47.5204 82.3169 46.8933C82.3963 46.6383 82.8158 46.4891 83.1502 46.3135C83.4846 46.138 83.8511 46.1588 84.1591 46.0682C84.86 45.9135 85.2642 46.4124 85.7212 46.7413C85.9498 46.9057 86.1518 47.1551 86.4654 47.346C86.5504 47.3725 86.5504 47.3725 86.6089 47.484C86.7845 47.8184 86.9866 48.0678 87.0772 48.3758C87.2584 48.9917 87.4396 49.6076 87.7057 50.25C87.7378 50.4465 87.8813 50.5844 87.9984 50.8074C88.089 51.1154 88.121 51.3119 88.2116 51.6198C88.3022 51.9278 88.5043 52.1772 88.5949 52.4852C88.8931 53.324 89.3878 54.1309 89.3781 55.0603C89.3517 55.1453 89.4952 55.2833 89.4687 55.3683C89.5913 55.8727 89.6875 56.4622 89.8102 56.9666C90.0555 57.9755 90.0666 58.5385 89.6848 59.1656Z" fill="black"/>
<path d="M93.3777 33.8331C93.3986 33.4667 93.446 33.0152 93.2704 32.6807C93.0307 31.9533 92.706 31.1994 92.2433 30.5891C92.2433 30.5891 92.1583 30.5626 92.1848 30.4776C92.2001 29.8297 91.605 29.6443 91.3444 29.2834C91.0838 28.9225 90.8818 28.6731 90.5947 28.3972C90.4512 28.2592 90.2812 28.2063 90.2226 28.0948C89.9941 27.9304 89.877 27.7074 89.7335 27.5695C89.5899 27.4315 89.5579 27.235 89.4143 27.0971C89.1802 26.6512 89.0311 26.2317 88.712 25.7594C88.4514 25.3985 88.3023 24.979 88.2382 24.5861C88.142 23.9966 87.9343 23.4657 88.1196 22.8707C88.167 22.4192 88.3579 22.1056 88.6923 21.93C88.8303 21.7865 89.0853 21.8659 89.2553 21.9188C89.5953 22.0247 90.0204 22.1571 90.3339 22.348C90.8175 22.5919 91.1895 22.8942 91.5616 23.1966C92.1037 23.5519 92.5608 23.8808 93.1028 24.2361C93.6449 24.5914 94.102 24.9203 94.6441 25.2756C95.1862 25.6309 95.7283 25.9862 96.2704 26.3416C96.8124 26.6969 97.2431 27.1107 97.6737 27.5246C97.8172 27.6625 97.9607 27.8005 98.1043 27.9384C98.9334 28.5697 99.3167 29.435 99.477 30.4174C99.5676 30.7254 99.6582 31.0334 99.6638 31.3148C99.6958 31.5113 99.6428 31.6813 99.5899 31.8513C99.484 32.1914 99.3781 32.5314 99.2722 32.8714C98.896 33.78 98.5463 34.6036 98.1701 35.5121C98.1436 35.5971 98.0056 35.7407 97.9792 35.8257C97.5918 36.1713 97.433 36.6813 97.3591 37.2178C97.3062 37.3878 97.1682 37.5314 97.1153 37.7014C96.792 38.4399 96.7767 39.0879 97.0164 39.8153C97.3091 40.3727 96.9537 40.9148 96.6514 41.2869C96.5134 41.4304 96.2319 41.436 95.9504 41.4416C95.3875 41.4528 95.0683 40.9804 94.8077 40.6195C94.6057 40.37 94.5415 39.9771 94.366 39.6426C94.3074 39.5311 94.3339 39.4461 94.2489 39.4197C93.7068 39.0644 93.6106 38.4749 93.5144 37.8855C93.4824 37.689 93.3124 37.636 93.2803 37.4395C93.2427 36.9616 93.29 36.5101 93.2524 36.0321C93.2942 35.2991 93.2245 34.6247 93.2663 33.8917C93.2927 33.8067 93.3192 33.7217 93.2607 33.6102C93.2663 33.8917 93.2927 33.8067 93.3777 33.8331ZM91.9366 26.4839C92.0801 26.6218 92.1386 26.7333 92.2822 26.8712C92.6278 27.2586 92.9734 27.646 93.319 28.0334C93.4625 28.1713 93.4946 28.3678 93.5531 28.4793C94.2652 28.8876 94.4785 29.7 94.8296 30.3688C95.0638 30.8148 95.1335 31.4892 95.2561 31.9936C95.3788 32.4981 95.4429 32.8911 95.4805 33.369C95.4861 33.6505 95.3217 33.8791 95.3273 34.1605C95.3329 34.442 95.312 34.8085 95.6255 34.9994C96.2567 34.1703 96.888 33.3411 97.0621 32.1831C97.2683 31.2216 96.8154 29.6818 96.0447 29.162C95.4441 28.6952 94.817 28.3134 94.3014 27.8731C94.0729 27.7087 93.9293 27.5707 93.7008 27.4063C93.2116 26.881 92.6431 26.6106 91.9366 26.4839Z" fill="black"/>
<path d="M55.2789 43.882C55.8724 42.5748 56.5887 41.7722 57.7941 41.4948C58.2135 41.3457 58.6329 41.1966 59.1109 41.1589C59.7853 41.0892 60.4919 41.216 61.0604 41.4863C61.714 41.7831 62.341 42.1649 62.9946 42.4617C63.7917 42.8965 64.3394 43.5333 64.8871 44.1701C65.3762 44.6954 65.5839 45.2263 65.9616 45.8102C66.2807 46.2826 66.4618 46.8985 66.781 47.3709C66.898 47.5938 66.9301 47.7903 67.0207 48.0983C67.3454 48.8521 67.4736 49.6381 67.4054 50.4561C67.3845 50.8226 67.4751 51.1305 67.4542 51.497C67.386 52.315 66.9191 52.9156 66.4523 53.5162C66.2615 53.8298 66.012 54.0319 65.7626 54.2339C65.6246 54.3775 65.3432 54.3831 65.1202 54.5001C64.5308 54.5963 63.9413 54.6925 63.2933 54.6772C62.5603 54.6354 61.9918 54.3651 61.5026 53.8397C60.987 53.3994 60.6944 52.842 60.4867 52.3111C60.3376 51.8917 60.2149 51.3872 60.2623 50.9357C60.2191 50.1763 59.815 49.6774 59.6338 49.0615C59.5167 48.8385 59.3996 48.6155 59.2826 48.3926C59.139 48.2546 59.022 48.0317 58.852 47.9788C57.9963 47.4325 57.0292 46.9449 56.1151 46.2872C55.658 45.9583 55.3974 45.5974 55.4127 44.9494C55.3486 44.5564 55.2844 44.1635 55.2789 43.882ZM60.1436 43.532C59.9471 43.5641 59.7771 43.5111 59.4956 43.5167C58.9326 43.5279 58.3431 43.6241 57.8443 44.0282C57.4834 44.2888 57.6325 44.7082 58.0311 44.9256C58.4296 45.143 58.7696 45.2489 59.1417 45.5512C59.8273 46.0445 60.513 46.5378 61.1457 47.2011C61.8369 47.9759 62.2201 48.8412 62.4919 49.7651C62.673 50.381 62.7427 51.0555 62.8974 51.7564C62.9615 52.1494 63.2486 52.4252 63.5886 52.5311C64.0137 52.6635 64.794 52.2538 64.8999 51.9138C65.1646 51.0637 65.4294 50.2137 65.0461 49.3483C64.897 48.9289 64.5779 48.4565 64.7367 47.9465C64.7632 47.8615 64.7047 47.75 64.6196 47.7235C64.3005 47.2511 64.0664 46.8052 63.7208 46.4179C63.3167 45.919 62.8275 45.3937 62.3119 44.9533C62.1099 44.7039 61.9078 44.4545 61.5942 44.2636C61.1372 43.9347 60.6271 43.7759 60.1436 43.532Z" fill="black"/>
<path d="M12.936 30.1355C13.1911 30.2149 13.4725 30.2093 13.6425 30.2623C14.4341 30.4155 15.3106 30.5952 16.1021 30.7485C16.8881 30.6203 17.589 30.4656 18.3749 30.3373C18.6829 30.2468 18.9908 30.1562 19.2403 29.9541C19.4632 29.837 19.6277 29.6085 19.7921 29.38C20.0415 29.1779 20.2645 29.0608 20.6045 29.1667C20.9445 29.2726 21.1995 29.352 21.513 29.5429C21.6831 29.5959 21.7737 29.9038 21.7472 29.9888C21.5619 30.5839 21.796 31.0298 22.1151 31.5022C22.2907 31.8366 22.5513 32.1975 22.8384 32.4734C23.099 32.8343 23.3861 33.1102 23.6732 33.3861C23.7317 33.4976 23.8167 33.5241 23.9867 33.577C24.6138 33.9588 25.1294 34.3991 25.7565 34.7809C26.07 34.9718 26.2986 35.1363 26.3362 35.6142C26.3738 36.0922 26.0715 36.4643 25.6255 36.6984C25.0682 36.9911 24.4411 36.6093 23.8837 36.9019C23.5757 36.9925 23.2678 37.0831 22.9598 37.1737C22.121 37.4719 21.367 37.7966 20.5546 38.0099C19.7422 38.2231 19.3019 38.7387 19.0316 39.3073C18.6234 40.0194 17.9224 40.1741 17.2368 39.6808C16.7532 39.437 16.7741 39.0705 16.88 38.7305C16.9803 38.109 16.6347 37.7216 16.4856 37.3022C16.3365 36.8827 16.0759 36.5218 15.9267 36.1024C15.7191 35.5714 15.2885 35.1576 14.8314 34.8287C14.3743 34.4999 14.0287 34.1125 13.6566 33.8101C13.3696 33.5342 12.971 33.3169 12.6839 33.0409C12.4554 32.8765 12.2004 32.7971 11.9718 32.6327C11.6848 32.3568 11.5092 32.0223 11.3336 31.6879C11.0994 31.242 11.3754 30.9549 11.5663 30.6414C11.9481 30.0143 12.4525 29.8917 12.936 30.1355ZM18.8531 35.988C19.0496 35.9559 19.1346 35.9824 19.1346 35.9824C19.7505 35.8012 20.4514 35.6465 21.0938 35.3803C21.7362 35.1141 21.8742 34.9706 21.4965 34.3867C21.2039 33.8293 20.7997 33.3305 20.2841 32.8902C19.997 32.6143 19.572 32.4819 19.0411 32.6895C18.5102 32.8972 17.8357 32.9669 17.1613 33.0366C16.8798 33.0422 16.8003 33.2972 16.8589 33.4087C17.0345 33.7431 17.2365 33.9925 17.4971 34.3535C17.6992 34.6029 17.9013 34.8523 18.1034 35.1017C18.3054 35.3512 18.5925 35.6271 18.8531 35.988Z" fill="black"/>
<path d="M111.272 51.5278C110.672 51.061 109.801 51.1628 108.956 51.1795C108.282 51.2492 107.602 51.0375 106.991 51.5001C106.519 51.8192 106.132 52.1649 105.659 52.484C104.938 53.0052 104.29 52.9899 103.71 52.1566C103.508 51.9071 103.385 51.4027 103.491 51.0627C103.623 50.6377 103.448 50.3032 103.357 49.9953C103.325 49.7988 103.293 49.6023 103.235 49.4908C103.202 49.2943 103.085 49.0714 103.053 48.8749C102.617 48.1796 102.154 47.5692 101.777 46.9854C101.633 46.8474 101.49 46.7094 101.346 46.5715C101.027 46.0991 100.793 45.6532 100.585 45.1223C100.527 45.0108 100.41 44.7879 100.351 44.6764C100.234 44.4534 100.006 44.289 100.059 44.119C100.079 43.7525 100.27 43.4389 100.461 43.1254C100.652 42.8119 101.104 42.8592 101.47 42.8801C101.555 42.9066 101.725 42.9595 101.81 42.986C102.49 43.1978 103.255 43.436 103.962 43.5628C104.302 43.6687 104.695 43.6046 104.976 43.599C105.539 43.5878 106.129 43.4917 106.718 43.3955C107.026 43.3049 107.419 43.2408 107.583 43.0123C107.774 42.6987 108.029 42.7781 108.311 42.7725C109.044 42.8143 109.565 43.5361 109.693 44.3221C109.731 44.8 109.742 45.363 109.976 45.8089C110.386 46.5893 110.822 47.2846 111.232 48.065C111.466 48.5109 111.923 48.8397 112.184 49.2006C112.503 49.673 112.907 50.1719 112.807 50.7934C112.759 51.2449 112.154 51.989 111.272 51.5278ZM107.379 45.4662C107.097 45.4718 106.842 45.3924 106.704 45.5359C106.402 45.908 105.865 45.8342 105.499 45.8133C105.132 45.7924 104.851 45.798 104.484 45.7771C104.399 45.7506 104.235 45.9792 104.293 46.0906C104.469 46.4251 104.73 46.786 104.905 47.1204C105.022 47.3434 105.054 47.5398 105.171 47.7628C105.406 48.2087 105.725 48.6811 105.959 49.127C106.017 49.2385 106.187 49.2914 106.299 49.2329C107 49.0782 107.674 49.0085 108.375 48.8538C108.683 48.7632 108.762 48.5082 108.587 48.1738C108.321 47.5314 108.028 46.974 107.762 46.3316C107.671 46.0236 107.469 45.7742 107.379 45.4662Z" fill="black"/>
</svg>
