<svg width="373" height="64" viewBox="0 0 373 64" fill="none" xmlns="http://www.w3.org/2000/svg">
<path d="M34.002 24.4263C35.8649 22.7324 38.2779 22.459 40.0996 23.5542C42.0143 24.7063 43.0205 27.172 42.4326 29.5386V29.5396C41.8747 31.7872 40.5094 33.6024 38.8506 35.397C36.8957 37.5117 34.6309 39.2972 32.2539 41.0278C29.2007 38.7953 26.3253 36.5203 24.1211 33.5796L23.6768 32.9644L23.3047 32.4067C22.4764 31.1021 21.9305 29.768 21.9014 28.2876C21.8587 26.1256 23.0417 24.1875 24.7646 23.3569L24.9326 23.2798C26.7419 22.4986 29.0009 22.9534 30.6416 24.561C30.9634 24.8765 31.2943 25.1945 31.6641 25.5532L32.3145 26.1831L32.9404 25.5298C33.2561 25.2005 33.4912 24.93 33.7422 24.6763L34.002 24.4263Z" fill="#FE0135" stroke="#FE0135" stroke-width="1.8"/>
<mask id="path-2-inside-1_2019_2466" fill="white">
<path d="M68 21C74.0751 21 79 25.9249 79 32C79 34.0572 78.4331 35.9811 77.4502 37.6279L78.8477 42.8408L73.6377 41.4443C71.9887 42.4308 70.0612 43 68 43C61.9249 43 57 38.0751 57 32C57 25.9249 61.9249 21 68 21Z"/>
</mask>
<path d="M77.4502 37.6279L75.9045 36.7055C75.6552 37.1232 75.5856 37.6241 75.7116 38.094L77.4502 37.6279ZM78.8477 42.8408L78.3816 44.5794C79.0028 44.746 79.6657 44.5684 80.1205 44.1136C80.5752 43.6588 80.7528 42.9959 80.5863 42.3747L78.8477 42.8408ZM73.6377 41.4443L74.1037 39.7057C73.6332 39.5796 73.1317 39.6496 72.7136 39.8996L73.6377 41.4443ZM68 21V22.8C73.081 22.8 77.2 26.919 77.2 32H79H80.8C80.8 24.9308 75.0692 19.2 68 19.2V21ZM79 32H77.2C77.2 33.7219 76.7264 35.3284 75.9045 36.7055L77.4502 37.6279L78.9958 38.5504C80.1397 36.6338 80.8 34.3925 80.8 32H79ZM77.4502 37.6279L75.7116 38.094L77.109 43.3069L78.8477 42.8408L80.5863 42.3747L79.1888 37.1618L77.4502 37.6279ZM78.8477 42.8408L79.3137 41.1022L74.1037 39.7057L73.6377 41.4443L73.1717 43.183L78.3816 44.5794L78.8477 42.8408ZM73.6377 41.4443L72.7136 39.8996C71.3347 40.7245 69.7253 41.2 68 41.2V43V44.8C70.3972 44.8 72.6427 44.1371 74.5618 42.989L73.6377 41.4443ZM68 43V41.2C62.919 41.2 58.8 37.081 58.8 32H57H55.2C55.2 39.0692 60.9308 44.8 68 44.8V43ZM57 32H58.8C58.8 26.919 62.919 22.8 68 22.8V21V19.2C60.9308 19.2 55.2 24.9308 55.2 32H57Z" fill="black" mask="url(#path-2-inside-1_2019_2466)"/>
<g clip-path="url(#clip0_2019_2466)">
<path d="M100.669 30.3617L94.6839 23.9504L111.771 23.9499L100.669 30.3617ZM104.127 40.3059L101.569 31.9204L112.669 25.5095L104.127 40.3059Z" stroke="black" stroke-width="1.8" stroke-linejoin="round"/>
</g>
<defs>
<clipPath id="clip0_2019_2466">
<rect width="24" height="24" fill="white" transform="translate(92 20)"/>
</clipPath>
</defs>
</svg>
